<?xml version="1.0" encoding="utf-8"?>
<!-- Generator: Adobe Illustrator 16.0.0, SVG Export Plug-In . SVG Version: 6.00 Build 0)  -->
<!DOCTYPE svg PUBLIC "-//W3C//DTD SVG 1.1//EN" "http://www.w3.org/Graphics/SVG/1.1/DTD/svg11.dtd">
<svg version="1.1" id="Layer_1" xmlns="http://www.w3.org/2000/svg" xmlns:xlink="http://www.w3.org/1999/xlink" x="0px" y="0px"
	 width="80px" height="70px" viewBox="0 0 80 70" enable-background="new 0 0 80 70" xml:space="preserve">
<g>
	<rect x="8.912" y="30.16" fill="#5E6E7F" width="62.18" height="31.088"/>
	<rect x="12.02" y="31.815" fill-rule="evenodd" clip-rule="evenodd" fill="#AAB5BE" width="55.964" height="3.316"/>
	<rect x="12.02" y="33.476" fill-rule="evenodd" clip-rule="evenodd" fill="#F6F9FB" width="55.964" height="1.655"/>
	<rect x="12.02" y="5.943" fill="#62C5B7" width="26.424" height="45.597"/>
	<rect x="13.394" y="7.317" fill="#30B39D" width="23.689" height="42.849"/>
	<rect x="14.814" y="8.741" fill="#62C5B7" width="20.843" height="40.002"/>
	<path fill="#30B39D" d="M25.237,36.75c-4.425,0-8.012-3.584-8.012-8.008c0-4.422,3.587-8.007,8.012-8.007
		c4.422,0,8.007,3.585,8.007,8.007C33.245,33.166,29.659,36.75,25.237,36.75"/>
	<path fill="#62C5B7" d="M24.728,29.549v-1.614c0-0.633,0.251-1.233,0.7-1.684c0.45-0.452,1.049-0.698,1.689-0.698
		c0.634,0,1.23,0.246,1.686,0.698c0.447,0.451,0.693,1.05,0.693,1.684v2.99c0,0.277-0.226,0.503-0.499,0.503
		c-0.282,0-0.508-0.227-0.508-0.503v-2.99c0-0.367-0.142-0.711-0.4-0.974c-0.262-0.259-0.604-0.401-0.971-0.401
		c-0.368,0-0.715,0.142-0.975,0.401c-0.265,0.262-0.403,0.606-0.403,0.974v1.614c0,0.279-0.229,0.502-0.501,0.502
		C24.955,30.051,24.728,29.828,24.728,29.549"/>
	<path fill="#62C5B7" d="M20.967,29.549V26.56c0-0.279,0.228-0.504,0.508-0.504c0.279,0,0.501,0.225,0.501,0.504v2.989
		c0,0.367,0.146,0.714,0.406,0.975c0.256,0.259,0.603,0.401,0.972,0.401c0.37,0,0.718-0.143,0.974-0.401
		c0.26-0.261,0.4-0.608,0.4-0.975v-1.614c0-0.279,0.228-0.502,0.51-0.502c0.272,0,0.501,0.224,0.501,0.502v1.614
		c0,0.634-0.249,1.234-0.696,1.683c-0.456,0.454-1.056,0.699-1.689,0.699c-0.64,0-1.239-0.245-1.686-0.699
		C21.218,30.783,20.967,30.183,20.967,29.549"/>
	<path fill="#62C5B7" d="M19.896,28.742c0-0.276,0.23-0.503,0.502-0.503h9.669c0.278,0,0.507,0.228,0.507,0.503
		c0,0.277-0.229,0.504-0.507,0.504h-9.669C20.125,29.246,19.896,29.019,19.896,28.742"/>
	<path fill="#30B39D" d="M19.89,7.317h-6.496v6.495C16.708,13.236,19.312,10.632,19.89,7.317"/>
	<path fill="#30B39D" d="M30.582,50.166h6.501v-6.494C33.759,44.246,31.156,46.847,30.582,50.166"/>
	<path fill="#30B39D" d="M19.89,50.166c-0.578-3.316-3.181-5.917-6.496-6.494v6.494H19.89z"/>
	<path fill="#30B39D" d="M37.083,13.812V7.317h-6.501C31.156,10.632,33.759,13.237,37.083,13.812"/>
	<rect x="8.912" y="35.131" fill="#293B4D" width="62.18" height="26.117"/>
	<path fill="#FFD162" d="M20.495,42.594c0,1.719-1.393,3.111-3.108,3.111c-1.721,0-3.114-1.393-3.114-3.111
		c0-1.716,1.393-3.107,3.114-3.107C19.102,39.486,20.495,40.878,20.495,42.594"/>
	<path fill="#F6B64D" d="M19.868,42.594c0,1.373-1.112,2.487-2.482,2.487c-1.375,0-2.492-1.114-2.492-2.487
		c0-1.374,1.117-2.487,2.492-2.487C18.756,40.106,19.868,41.22,19.868,42.594"/>
	<rect x="12.02" y="42.594" fill="#5E6E7F" width="26.424" height="15.544"/>
	<rect x="41.558" y="42.594" fill="#5E6E7F" width="26.427" height="15.544"/>
	<path fill-rule="evenodd" clip-rule="evenodd" fill="#F3705B" d="M66.692,37.62H42.85c-0.332,0-0.661,0.128-0.915,0.38
		c-0.251,0.252-0.377,0.585-0.377,0.917v2.485h26.427v-2.487c0-0.33-0.128-0.663-0.383-0.915
		C67.349,37.748,67.019,37.62,66.692,37.62"/>
	<path fill-rule="evenodd" clip-rule="evenodd" fill="#F6F9FB" d="M66.692,40.106H42.85c-0.332,0-0.661,0.127-0.915,0.379
		c-0.251,0.254-0.377,0.586-0.377,0.919v1.189h26.427v-1.192c0-0.33-0.128-0.662-0.383-0.914
		C67.349,40.233,67.019,40.106,66.692,40.106"/>
	<path fill-rule="evenodd" clip-rule="evenodd" fill="#F6F9FB" d="M22.747,41.402v4.352c0,0.636,0.243,1.273,0.729,1.759
		c0.487,0.486,1.12,0.729,1.759,0.729c0.634,0,1.273-0.243,1.758-0.729c0.486-0.485,0.729-1.123,0.729-1.759v-4.352H22.747z"/>
	<path fill-rule="evenodd" clip-rule="evenodd" fill="#293B4D" d="M26.166,45.754c0,0.516-0.418,0.934-0.931,0.934
		c-0.517,0-0.936-0.418-0.936-0.934c0-0.514,0.418-0.934,0.936-0.934C25.748,44.82,26.166,45.24,26.166,45.754"/>
	<rect x="12.02" y="61.248" fill-rule="evenodd" clip-rule="evenodd" fill="#F3705B" width="10.727" height="3.109"/>
	<rect x="13.652" y="62.489" fill-rule="evenodd" clip-rule="evenodd" fill="#F6F9FB" width="7.462" height="0.625"/>
	<path fill="#F6B64D" d="M47.729,13.302c0,4.067,3.305,7.368,7.363,7.368c4.072,0,7.366-3.301,7.366-7.368
		c0-4.063-3.294-7.359-7.366-7.359C51.034,5.943,47.729,9.239,47.729,13.302"/>
	<path fill="#FFD162" d="M47.078,13.302c0,4.067,3.296,7.368,7.362,7.368c4.07,0,7.366-3.301,7.366-7.368
		c0-4.063-3.296-7.359-7.366-7.359C50.374,5.943,47.078,9.239,47.078,13.302"/>
	<path fill="#FFC553" d="M49.046,13.302c0,2.987,2.417,5.404,5.393,5.404c2.986,0,5.406-2.417,5.406-5.404
		c0-2.979-2.42-5.395-5.406-5.395C51.463,7.907,49.046,10.322,49.046,13.302"/>
	<path fill="#F6B64D" d="M49.701,13.302c0-2.869,2.233-5.208,5.066-5.38c-0.109-0.005-0.213-0.015-0.327-0.015
		c-2.978,0-5.395,2.415-5.395,5.395c0,2.987,2.417,5.404,5.395,5.404c0.114,0,0.218-0.01,0.327-0.015
		C51.935,18.518,49.701,16.177,49.701,13.302"/>
</g>
</svg>
