<?xml version="1.0" encoding="utf-8"?>
<!-- Generator: Adobe Illustrator 16.0.0, SVG Export Plug-In . SVG Version: 6.00 Build 0)  -->
<!DOCTYPE svg PUBLIC "-//W3C//DTD SVG 1.1//EN" "http://www.w3.org/Graphics/SVG/1.1/DTD/svg11.dtd">
<svg version="1.1" id="Layer_1" xmlns="http://www.w3.org/2000/svg" xmlns:xlink="http://www.w3.org/1999/xlink" x="0px" y="0px"
	 width="80px" height="70px" viewBox="0 0 80 70" enable-background="new 0 0 80 70" xml:space="preserve">
<g>
	<rect x="40.928" y="46.162" fill="#FFC553" width="23.027" height="4.812"/>
	<rect x="40.928" y="45.681" fill="#FFC553" width="23.027" height="4.812"/>
	<rect x="46.713" y="40.867" fill="#FFC553" width="23.031" height="4.813"/>
	<rect x="46.713" y="40.386" fill="#FFD162" width="23.031" height="4.813"/>
	<rect x="44.533" y="35.575" fill="#FFC553" width="23.033" height="4.811"/>
	<rect x="44.533" y="35.092" fill="#FFC553" width="23.033" height="4.812"/>
	<rect x="47.629" y="30.28" fill="#FFC553" width="23.031" height="4.813"/>
	<rect x="47.629" y="29.798" fill="#FFD162" width="23.031" height="4.813"/>
	<rect x="9.796" y="46.162" fill="#F6B64D" width="23.031" height="4.812"/>
	<rect x="9.796" y="45.681" fill="#FFC553" width="23.031" height="4.812"/>
	<rect x="14.923" y="40.867" fill="#FFC553" width="23.031" height="4.813"/>
	<rect x="14.923" y="40.386" fill="#FFD162" width="23.031" height="4.813"/>
	<rect x="15.639" y="35.575" fill="#FFC553" width="23.032" height="4.811"/>
	<rect x="15.639" y="35.092" fill="#F6B64D" width="23.032" height="4.812"/>
	<rect x="13.578" y="30.28" fill="#F6B64D" width="23.03" height="4.813"/>
	<rect x="13.578" y="29.798" fill="#FFC553" width="23.03" height="4.813"/>
	<rect x="14.371" y="24.986" fill="#F6B64D" width="23.031" height="4.812"/>
	<rect x="14.371" y="24.506" fill="#FFC553" width="23.031" height="4.812"/>
	<rect x="13.062" y="19.693" fill="#FFC553" width="23.03" height="4.813"/>
	<rect x="13.062" y="19.212" fill="#FFD162" width="23.03" height="4.811"/>
	<rect x="17.359" y="14.398" fill="#F6B64D" width="23.03" height="4.814"/>
	<rect x="17.359" y="13.917" fill="#FFC553" width="23.03" height="4.813"/>
	<g>
		<g>
			<defs>
				<rect id="SVGID_1_" x="21.627" y="31.893" width="41.875" height="24.375"/>
			</defs>
			<clipPath id="SVGID_2_">
				<use xlink:href="#SVGID_1_"  overflow="visible"/>
			</clipPath>
			<path clip-path="url(#SVGID_2_)" fill="#EBDBCE" d="M38.671,35.091v5.294h-0.715v5.295h-5.129v5.293h3.265v5.295h-8.077
				l-0.481-0.481l-2.284-2.28c-0.473-0.479-0.914-0.997-1.309-1.551c-0.13-0.176-0.241-0.342-0.337-0.498
				c-0.01-0.015-0.017-0.024-0.023-0.039c-0.077-0.113-0.176-0.271-0.271-0.445c-0.014-0.021-0.027-0.046-0.042-0.07
				c-0.078-0.135-0.15-0.271-0.223-0.409c-0.694-1.308-1.144-2.732-1.323-4.226c-0.004-0.036-0.007-0.07-0.01-0.106
				c-0.018-0.13-0.031-0.27-0.042-0.409c-0.003-0.021-0.003-0.046-0.006-0.072c-0.015-0.151-0.021-0.308-0.023-0.467v-0.017
				c-0.008-0.133-0.013-0.292-0.013-0.446c0-0.069,0-0.137,0.005-0.207v-0.069c-0.005-0.067-0.005-0.138-0.005-0.205
				c0-1.158,0.163-2.305,0.479-3.399c0.021-0.085,0.045-0.169,0.071-0.253c0.021-0.077,0.045-0.152,0.074-0.231
				c0.029-0.092,0.061-0.19,0.097-0.284c0.023-0.067,0.047-0.134,0.075-0.198c0.042-0.112,0.083-0.221,0.126-0.327
				c0.611-1.491,1.52-2.859,2.651-4.002c0.162-0.167,0.329-0.328,0.501-0.482c0.062-0.059,0.124-0.115,0.189-0.169
				c0.117-0.104,0.238-0.205,0.374-0.313c0.08-0.062,0.163-0.127,0.251-0.197c0.262-0.199,0.512-0.375,0.757-0.528
				c0.636-0.417,1.334-0.784,2.07-1.082c0.105-0.046,0.215-0.087,0.325-0.125c1.385-0.52,2.839-0.785,4.332-0.785h0.131
				c0.218,0.004,0.425,0.011,0.632,0.025c0.017,0,0.038,0.004,0.055,0.004c0.274,0.017,0.55,0.049,0.826,0.081
				c0.042,0.005,0.079,0.007,0.121,0.015c0.273,0.038,0.556,0.088,0.843,0.151v2.922H38.671z M63.369,56.137l-0.348-0.35
				l-4.813-4.813l-0.482-0.479l-0.711-0.713l-3.619-3.619l-0.48-0.481l-0.486-0.483l-0.592-0.591l-2.549-2.552l-0.811-0.81
				l-0.121-0.12L48.1,40.87l-0.482-0.484l-1.439-1.44l-1.643-1.641v3.081h2.18v5.295h-5.789v5.293h1.89v5.295h20.686L63.369,56.137z
				"/>
		</g>
	</g>
	<path fill="#FFC553" d="M45.516,44.751c0,6.362-5.155,11.516-11.514,11.516s-11.515-5.153-11.515-11.516
		c0-6.361,5.156-11.517,11.515-11.517S45.516,38.39,45.516,44.751"/>
	<path fill="#FFD162" d="M45.516,44.27c0,6.362-5.155,11.516-11.514,11.516S22.486,50.632,22.486,44.27
		c0-6.36,5.156-11.516,11.515-11.516S45.516,37.909,45.516,44.27"/>
	<path fill="#F6B64D" d="M34.001,53.942c-5.333,0-9.672-4.339-9.672-9.673c0-5.332,4.339-9.674,9.672-9.674
		c5.333,0,9.672,4.342,9.672,9.674C43.674,49.604,39.334,53.942,34.001,53.942 M34.001,35.517c-4.824,0-8.751,3.928-8.751,8.753
		c0,4.826,3.927,8.753,8.751,8.753c4.826,0,8.75-3.927,8.75-8.753C42.752,39.444,38.828,35.517,34.001,35.517"/>
	<path fill="#F6B64D" d="M37.272,44.164c-0.473-0.486-1.36-0.879-2.66-1.188v-2.747c0.526,0.197,0.852,0.57,0.977,1.124l2.058-0.233
		c-0.141-0.701-0.466-1.265-0.977-1.684c-0.509-0.42-1.196-0.675-2.058-0.763v-0.696h-1.18v0.696
		c-0.934,0.079-1.68,0.379-2.241,0.902c-0.56,0.522-0.841,1.171-0.841,1.941c0,0.759,0.247,1.403,0.743,1.938
		c0.495,0.532,1.276,0.927,2.339,1.189v2.947c-0.292-0.12-0.559-0.315-0.798-0.588c-0.238-0.271-0.4-0.595-0.487-0.973l-2.125,0.197
		c0.164,0.925,0.538,1.641,1.123,2.146c0.586,0.509,1.35,0.81,2.287,0.908v1.281h1.18v-1.317c1.056-0.133,1.883-0.486,2.476-1.066
		c0.594-0.583,0.891-1.301,0.891-2.148C37.979,45.271,37.745,44.65,37.272,44.164 M33.432,42.642
		c-0.352-0.13-0.616-0.303-0.789-0.518c-0.172-0.214-0.262-0.442-0.262-0.693c0-0.27,0.096-0.521,0.287-0.744
		c0.189-0.227,0.444-0.385,0.764-0.479V42.642z M35.604,47.203c-0.255,0.26-0.586,0.426-0.992,0.488v-2.74
		c0.489,0.12,0.838,0.296,1.054,0.522c0.214,0.229,0.321,0.499,0.321,0.812C35.987,46.64,35.858,46.945,35.604,47.203"/>
</g>
</svg>
