<?xml version="1.0" encoding="utf-8"?>
<!-- Generator: Adobe Illustrator 16.0.0, SVG Export Plug-In . SVG Version: 6.00 Build 0)  -->
<!DOCTYPE svg PUBLIC "-//W3C//DTD SVG 1.1//EN" "http://www.w3.org/Graphics/SVG/1.1/DTD/svg11.dtd">
<svg version="1.1" id="Layer_1" xmlns="http://www.w3.org/2000/svg" xmlns:xlink="http://www.w3.org/1999/xlink" x="0px" y="0px"
	 width="80px" height="70px" viewBox="0 0 80 70" enable-background="new 0 0 80 70" xml:space="preserve">
<g>
	<rect x="11.509" y="9" fill="#FFD162" width="41.071" height="52.25"/>
	<rect x="52.58" y="9" fill="#F6B64D" width="7.946" height="52.25"/>
	<rect x="60.526" y="9" fill="#FFD162" width="7.942" height="52.25"/>
	<polygon fill="#FFC553" points="60.524,53.306 52.58,61.251 68.469,61.251 	"/>
	<path fill="#364A5E" d="M21.93,14.823c0-0.781-0.633-1.413-1.412-1.413c-0.78,0-1.412,0.632-1.412,1.413
		c0,0.78,0.632,1.412,1.412,1.412C21.297,16.235,21.93,15.604,21.93,14.823"/>
	<path fill="#364A5E" d="M44.98,14.823c0-0.781-0.63-1.413-1.409-1.413c-0.781,0-1.413,0.632-1.413,1.413
		c0,0.78,0.632,1.412,1.413,1.412C44.351,16.235,44.98,15.604,44.98,14.823"/>
	<g>
		<g>
			<defs>
				<rect id="SVGID_1_" x="20.048" y="14.353" width="23.993" height="21.857"/>
			</defs>
			<clipPath id="SVGID_2_">
				<use xlink:href="#SVGID_1_"  overflow="visible"/>
			</clipPath>
			<path clip-path="url(#SVGID_2_)" fill="#EBDBCE" d="M43.571,14.353c-0.26,0-0.472,0.249-0.472,0.56v7.038
				c0,3.509-1.15,6.813-3.238,9.292c-2.085,2.482-4.863,3.85-7.816,3.85c-2.953,0-5.729-1.368-7.819-3.85
				c-2.085-2.479-3.237-5.782-3.237-9.292v-7.038c0-0.312-0.211-0.56-0.471-0.56c-0.261,0-0.471,0.249-0.471,0.56v7.038
				c0,3.812,1.248,7.39,3.514,10.085c2.265,2.692,5.279,4.175,8.483,4.175c3.204,0,6.217-1.483,8.482-4.175
				c2.265-2.695,3.514-6.273,3.514-10.085v-7.038C44.041,14.602,43.83,14.353,43.571,14.353"/>
		</g>
	</g>
	<path fill="#F6F9FB" d="M43.571,14.353c-0.26,0-0.472,0.21-0.472,0.47v5.921c0,2.954-1.15,5.732-3.238,7.819
		c-2.085,2.089-4.863,3.238-7.816,3.238c-2.953,0-5.729-1.148-7.819-3.238c-2.085-2.086-3.237-4.865-3.237-7.819v-5.921
		c0-0.26-0.211-0.47-0.471-0.47c-0.261,0-0.471,0.21-0.471,0.47v5.921c0,3.207,1.248,6.218,3.514,8.486
		c2.265,2.265,5.279,3.512,8.483,3.512c3.204,0,6.217-1.248,8.482-3.512c2.265-2.268,3.514-5.279,3.514-8.486v-5.921
		C44.041,14.563,43.83,14.353,43.571,14.353"/>
</g>
</svg>
