<?xml version="1.0" encoding="utf-8"?>
<!-- Generator: Adobe Illustrator 16.0.0, SVG Export Plug-In . SVG Version: 6.00 Build 0)  -->
<!DOCTYPE svg PUBLIC "-//W3C//DTD SVG 1.1//EN" "http://www.w3.org/Graphics/SVG/1.1/DTD/svg11.dtd">
<svg version="1.1" id="Layer_1" xmlns="http://www.w3.org/2000/svg" xmlns:xlink="http://www.w3.org/1999/xlink" x="0px" y="0px"
	 width="80px" height="70px" viewBox="0 0 80 70" enable-background="new 0 0 80 70" xml:space="preserve">
<path fill="#F6B64D" d="M75.609,35.201c0,12.078-9.791,21.873-21.879,21.873c-12.082,0-21.874-9.795-21.874-21.873
	c0-12.083,9.792-21.878,21.874-21.878C65.818,13.322,75.609,23.118,75.609,35.201"/>
<path fill="#FFD162" d="M70.139,35.201c0,9.061-7.342,16.402-16.406,16.402c-9.063,0-16.402-7.342-16.402-16.402
	c0-9.063,7.34-16.409,16.402-16.409C62.797,18.792,70.139,26.138,70.139,35.201"/>
<path fill="#F6B64D" d="M51.801,33.993h3.866c1.522,0,2.966,0.59,4.045,1.668c1.082,1.09,1.67,2.524,1.67,4.055
	c0,1.528-0.588,2.957-1.67,4.046c-1.079,1.074-2.522,1.664-4.045,1.664H48.49c-0.666,0-1.213-0.531-1.213-1.197
	c0-0.674,0.547-1.213,1.213-1.213h7.177c0.885,0,1.71-0.343,2.335-0.968c0.631-0.628,0.975-1.446,0.975-2.332
	c0-0.883-0.344-1.711-0.975-2.34c-0.625-0.625-1.45-0.963-2.335-0.963h-3.866c-0.672,0-1.217-0.552-1.217-1.21
	C50.584,34.536,51.129,33.993,51.801,33.993"/>
<path fill="#F6B64D" d="M51.801,24.958h7.176c0.666,0,1.213,0.549,1.213,1.209c0,0.675-0.547,1.214-1.213,1.214h-7.176
	c-0.889,0-1.716,0.342-2.337,0.972c-0.63,0.615-0.974,1.442-0.974,2.328c0,0.896,0.344,1.724,0.974,2.341
	c0.621,0.629,1.448,0.971,2.337,0.971h3.866c0.674,0,1.213,0.543,1.213,1.21c0,0.658-0.539,1.21-1.213,1.21h-3.866
	c-1.525,0-2.967-0.599-4.049-1.679c-1.076-1.083-1.669-2.524-1.669-4.053c0-1.529,0.593-2.965,1.669-4.047
	C48.831,25.552,50.273,24.958,51.801,24.958"/>
<path fill="#F6B64D" d="M53.73,22.384c0.672,0,1.207,0.544,1.207,1.209v23.208c0,0.666-0.535,1.217-1.207,1.217
	c-0.67,0-1.198-0.551-1.198-1.217V23.594C52.532,22.928,53.063,22.384,53.73,22.384"/>
<g opacity="0.6">
	<g>
		<g>
			<defs>
				<rect id="SVGID_1_" x="31.856" y="17.764" width="39.31" height="39.31"/>
			</defs>
			<clipPath id="SVGID_2_">
				<use xlink:href="#SVGID_1_"  overflow="visible"/>
			</clipPath>
			<path opacity="0.6" clip-path="url(#SVGID_2_)" fill="#E49C3E" d="M71.168,48.408L40.523,17.764
				c-5.263,3.994-8.667,10.316-8.667,17.437c0,12.078,9.792,21.873,21.874,21.873C60.854,57.073,67.171,53.672,71.168,48.408"/>
		</g>
	</g>
</g>
<path fill="#62C5B7" d="M47.902,34.777c0,12.081-9.792,21.875-21.877,21.875c-12.084,0-21.875-9.797-21.875-21.875
	c0-12.081,9.79-21.875,21.875-21.875S47.902,22.696,47.902,34.777"/>
<g>
	<path fill="#F6F9FB" d="M37.538,25.309h-8.671v2.829h2.87v1.918h-2.87v1.881h2.838v1.895h-2.838v1.891h2.838v1.894h-2.838v1.892
		h2.838v1.896h-2.838v2.837h8.671c0.439,0,0.794-0.368,0.794-0.821V26.137C38.332,25.679,37.977,25.309,37.538,25.309L37.538,25.309
		z M36.438,41.402h-3.786v-1.896h3.786V41.402z M36.438,37.616h-3.786v-1.894h3.786V37.616z M36.438,33.833h-3.786v-1.895h3.786
		V33.833z M36.438,30.043h-3.786v-1.891h3.786V30.043z"/>
	<path fill="#F6F9FB" d="M13.721,25.208v19.14l14.198,2.737V22.472L13.721,25.208z M22.701,39.586l-1.65-3.123
		c-0.064-0.115-0.129-0.329-0.194-0.643h-0.028c-0.033,0.147-0.102,0.369-0.222,0.668l-1.654,3.098h-2.575l3.055-4.792l-2.796-4.797
		h2.63l1.369,2.875c0.105,0.227,0.203,0.5,0.291,0.81h0.023c0.056-0.186,0.157-0.468,0.3-0.837l1.525-2.847h2.408l-2.875,4.757
		l2.953,4.833h-2.56V39.586z"/>
</g>
</svg>
