<?xml version="1.0" encoding="utf-8"?>
<!-- Generator: Adobe Illustrator 16.0.0, SVG Export Plug-In . SVG Version: 6.00 Build 0)  -->
<!DOCTYPE svg PUBLIC "-//W3C//DTD SVG 1.1//EN" "http://www.w3.org/Graphics/SVG/1.1/DTD/svg11.dtd">
<svg version="1.1" id="Layer_1" xmlns="http://www.w3.org/2000/svg" xmlns:xlink="http://www.w3.org/1999/xlink" x="0px" y="0px"
	 width="80px" height="70px" viewBox="0 0 80 70" enable-background="new 0 0 80 70" xml:space="preserve">
<g>
	<g>
		<path fill="#293B4D" d="M65.806,24.699h-1.055C63.633,11.062,52.85,0.324,39.742,0.324c-13.12,0-23.898,10.737-25.023,24.375
			h-0.501c-2.697,0-4.894,2.196-4.894,4.895v19.212c0,2.705,2.197,4.895,4.894,4.895h5.319c2.703,0,4.899-2.189,4.899-4.895V29.594
			c0-2.699-2.196-4.895-4.899-4.895H17.41C18.511,12.547,28.106,3.015,39.742,3.015c11.627,0,21.222,9.532,22.324,21.685h-1.579
			c-2.702,0-4.894,2.196-4.894,4.895v19.212c0,2.32,1.648,4.336,3.922,4.795l2.382,0.064c0.075,1.598-0.1,4.702-2.156,7.178
			c-1.719,2.063-4.433,3.305-8.069,3.74c-0.599-0.932-1.648-1.551-2.836-1.551h-5.139c-1.864,0-3.386,1.517-3.386,3.392
			c0,1.871,1.521,3.384,3.386,3.384h5.139c1.59,0,2.912-1.093,3.279-2.573c4.288-0.536,7.562-2.098,9.712-4.691
			c2.552-3.086,2.849-6.78,2.769-8.843h1.211c2.703,0,4.899-2.189,4.899-4.895V29.594C70.699,26.895,68.509,24.699,65.806,24.699
			L65.806,24.699z M65.806,24.699"/>
	</g>
	<path fill="#5E6E7F" d="M19.537,24.699h-0.503V53.7h0.503c2.703,0,4.899-2.189,4.899-4.895V29.594
		C24.436,26.895,22.24,24.699,19.537,24.699z"/>
	<path fill="#5E6E7F" d="M60.364,24.699h0.504V53.7h-0.504c-2.703,0-4.899-2.189-4.899-4.895V29.594
		C55.465,26.895,57.661,24.699,60.364,24.699z"/>
</g>
</svg>
