<?xml version="1.0" encoding="utf-8"?>
<!-- Generator: Adobe Illustrator 16.0.0, SVG Export Plug-In . SVG Version: 6.00 Build 0)  -->
<!DOCTYPE svg PUBLIC "-//W3C//DTD SVG 1.1//EN" "http://www.w3.org/Graphics/SVG/1.1/DTD/svg11.dtd">
<svg version="1.1" id="Layer_1" xmlns="http://www.w3.org/2000/svg" xmlns:xlink="http://www.w3.org/1999/xlink" x="0px" y="0px"
	 width="80px" height="70px" viewBox="-1 -6 80 70" enable-background="new -1 -6 80 70" xml:space="preserve">
<g>
	<polygon fill="#F6B64D" points="61.813,32.344 45.136,15.665 27.392,33.412 44.076,50.092 	"/>
	<path fill="#FFD162" d="M44.111,52.173c0.531,0.531,0.865,1.271,0.865,2.084c0,0.819-0.334,1.558-0.865,2.089
		c-0.53,0.531-1.268,0.865-2.082,0.865c-0.813,0-1.551-0.334-2.088-0.865l-6.25-6.254l4.168-4.172L44.111,52.173z"/>
	<path fill="#FFD162" d="M48.283,48.001c0.531,0.54,0.865,1.274,0.865,2.091c0,0.813-0.334,1.551-0.865,2.081
		c-0.531,0.531-1.268,0.865-2.081,0.865c-0.822,0-1.56-0.334-2.091-0.865l-6.253-6.253l4.171-4.173L48.283,48.001z"/>
	<path fill="#FFD162" d="M48.283,48.001c0.531,0.54,0.865,1.274,0.865,2.091c0,0.813-0.334,1.551-0.865,2.081
		c-0.531,0.531-1.268,0.865-2.081,0.865c-0.822,0-1.56-0.334-2.091-0.865l-6.253-6.253l4.171-4.173L48.283,48.001z"/>
	<path fill="#FFD162" d="M52.456,43.838c0.53,0.532,0.856,1.27,0.856,2.082c0,0.814-0.326,1.551-0.856,2.081
		c-0.54,0.54-1.276,0.866-2.089,0.866c-0.814,0-1.553-0.326-2.084-0.866l-6.254-6.254l4.173-4.163L52.456,43.838z"/>
	<path fill="#FFD162" d="M52.456,43.838c0.53,0.532,0.856,1.27,0.856,2.082c0,0.814-0.326,1.551-0.856,2.081
		c-0.54,0.54-1.276,0.866-2.089,0.866c-0.814,0-1.553-0.326-2.084-0.866l-6.254-6.254l4.173-4.163L52.456,43.838z"/>
	<path fill="#FFD162" d="M56.619,39.668c0.539,0.527,0.865,1.266,0.865,2.079c0,0.815-0.326,1.55-0.865,2.091
		c-0.531,0.532-1.268,0.857-2.081,0.857s-1.552-0.325-2.082-0.857l-6.254-6.254l4.165-4.172L56.619,39.668z"/>
	<polygon fill="#FFD162" points="32.628,15.665 15.948,32.344 33.691,50.092 50.367,33.412 	"/>
	<path fill="#F6B64D" d="M25.31,43.838c-0.535,0.532-1.272,0.857-2.086,0.857c-0.813,0-1.549-0.325-2.086-0.857
		c-0.531-0.539-0.861-1.275-0.861-2.091c0-0.813,0.33-1.552,0.861-2.079l2.127-2.129c0.535-0.532,1.273-0.865,2.086-0.865
		s1.55,0.333,2.083,0.865c0.535,0.529,0.865,1.268,0.865,2.082c0,0.813-0.33,1.55-0.865,2.089L25.31,43.838z"/>
	<path fill="#F6B64D" d="M29.478,48.001c-0.531,0.54-1.269,0.865-2.086,0.865c-0.813,0-1.55-0.325-2.082-0.865
		c-0.535-0.53-0.865-1.267-0.867-2.081c0-0.813,0.332-1.55,0.867-2.082l2.125-2.128c0.534-0.539,1.271-0.862,2.084-0.862
		s1.554,0.323,2.085,0.862c0.532,0.532,0.866,1.269,0.866,2.084c0,0.813-0.333,1.548-0.866,2.079L29.478,48.001z"/>
	<path fill="#F6B64D" d="M33.649,52.174c-0.536,0.53-1.272,0.864-2.085,0.864s-1.551-0.334-2.086-0.865
		c-0.531-0.53-0.861-1.269-0.861-2.081s0.33-1.551,0.861-2.091l2.126-2.128c0.532-0.531,1.271-0.854,2.087-0.854
		c0.813,0,1.55,0.322,2.085,0.854c0.531,0.541,0.861,1.279,0.861,2.093s-0.33,1.55-0.861,2.08L33.649,52.174z"/>
	<path fill="#F6B64D" d="M37.823,56.346c-0.541,0.531-1.277,0.865-2.093,0.865c-0.813,0-1.549-0.334-2.081-0.865
		c-0.536-0.531-0.866-1.268-0.866-2.089c0-0.813,0.33-1.553,0.866-2.083l2.128-2.128c0.531-0.53,1.268-0.864,2.081-0.864
		s1.55,0.334,2.083,0.864c0.541,0.531,0.865,1.271,0.865,2.093c0,0.813-0.324,1.549-0.863,2.08L37.823,56.346z"/>
	<path fill="#F6B64D" d="M35.778,33.364c-0.535,0.532-1.272,0.866-2.085,0.866c-0.814,0-1.552-0.334-2.086-0.866
		c-0.532-0.53-0.864-1.267-0.864-2.081c0-0.813,0.332-1.549,0.864-2.088l7.274-7.275l4.171,4.171L35.778,33.364z"/>
	<polygon fill="#E7EAED" points="31.482,13.483 13.758,31.204 15.428,32.865 33.148,15.145 	"/>
	
		<rect x="2.879" y="8.497" transform="matrix(-0.707 0.7072 -0.7072 -0.707 40.5671 16.4031)" fill="#364A5E" width="28.013" height="16.215"/>
	<path fill="#FFFFFF" d="M14.484,25.76c0,0.975-0.789,1.769-1.767,1.769c-0.978,0-1.769-0.794-1.769-1.769
		c0-0.983,0.791-1.768,1.769-1.768C13.695,23.992,14.484,24.776,14.484,25.76"/>
	<polygon fill="#E7EAED" points="64.006,31.205 46.285,13.483 44.614,15.146 62.333,32.865 	"/>
	<polygon fill="#364A5E" points="76.512,20.778 56.709,0.967 45.243,12.434 65.046,32.245 	"/>
	<path fill="#FFFFFF" d="M66.813,25.76c0,0.975-0.793,1.769-1.768,1.769s-1.768-0.794-1.768-1.769c0-0.983,0.793-1.768,1.768-1.768
		S66.813,24.776,66.813,25.76"/>
</g>
</svg>
