<?xml version="1.0" encoding="utf-8"?>
<!-- Generator: Adobe Illustrator 16.0.0, SVG Export Plug-In . SVG Version: 6.00 Build 0)  -->
<!DOCTYPE svg PUBLIC "-//W3C//DTD SVG 1.1//EN" "http://www.w3.org/Graphics/SVG/1.1/DTD/svg11.dtd">
<svg version="1.1" id="Layer_1" xmlns="http://www.w3.org/2000/svg" xmlns:xlink="http://www.w3.org/1999/xlink" x="0px" y="0px"
	 width="80px" height="70px" viewBox="0 0 80 70" enable-background="new 0 0 80 70" xml:space="preserve">
<g>
	<rect x="33.276" y="17.13" fill="#364A5E" width="21.576" height="17.747"/>
	<rect x="33.273" y="22.304" fill="#293B4D" width="21.576" height="1.115"/>
	<rect x="32.809" y="17.13" fill="#364A5E" width="22.51" height="5.175"/>
	<rect x="42.123" y="17.131" fill="#F6F9FB" width="3.884" height="7.771"/>
	<rect x="33.274" y="34.877" fill="#AAB5BE" width="30.292" height="25.068"/>
	<rect x="43.92" y="56.242" fill="#293B4D" width="9.005" height="1.633"/>
	<polygon fill="#293B4D" points="47.468,50.51 45.691,48.733 43.92,50.51 44.874,50.51 44.874,55.262 46.506,55.264 46.506,50.51 	
		"/>
	<polygon fill="#293B4D" points="52.925,50.51 51.149,48.733 49.373,50.51 50.333,50.51 50.333,55.262 51.966,55.262 51.966,50.508 
			"/>
	<rect x="43.757" y="37.483" fill="#293B4D" width="9.326" height="2.331"/>
	<path fill="#CDD3DA" d="M58.507,62.861H30.356V9.131c0-0.704-0.273-1.362-0.77-1.86c-0.496-0.495-1.159-0.77-1.858-0.77h-2.357
		v-2.92h2.357c1.482,0,2.877,0.579,3.921,1.627c1.049,1.045,1.625,2.438,1.625,3.922v50.815h25.232V62.861z"/>
	<path fill="#364A5E" d="M37.362,61.405c0,3.062-2.483,5.546-5.545,5.546c-3.061,0-5.546-2.484-5.546-5.546
		c0-3.064,2.485-5.549,5.546-5.549C34.878,55.856,37.362,58.341,37.362,61.405"/>
	<path fill="#F6F9FB" d="M34.442,61.405c0,1.449-1.176,2.626-2.625,2.626s-2.627-1.177-2.627-2.626c0-1.452,1.178-2.629,2.627-2.629
		S34.442,59.953,34.442,61.405"/>
	<path fill="#364A5E" d="M16.612,6.501c0,0.077,0.032,0.151,0.089,0.208c0.057,0.057,0.131,0.087,0.205,0.087h8.177
		c0.074,0,0.147-0.03,0.205-0.087s0.083-0.131,0.083-0.208V3.582c0-0.075-0.026-0.146-0.083-0.204
		c-0.058-0.058-0.131-0.087-0.205-0.087h-8.177c-0.073,0-0.148,0.029-0.205,0.087c-0.058,0.058-0.089,0.129-0.089,0.204V6.501z"/>
</g>
</svg>
