<?xml version="1.0" encoding="utf-8"?>
<!-- Generator: Adobe Illustrator 16.0.0, SVG Export Plug-In . SVG Version: 6.00 Build 0)  -->
<!DOCTYPE svg PUBLIC "-//W3C//DTD SVG 1.1//EN" "http://www.w3.org/Graphics/SVG/1.1/DTD/svg11.dtd">
<svg version="1.1" id="Layer_1" xmlns="http://www.w3.org/2000/svg" xmlns:xlink="http://www.w3.org/1999/xlink" x="0px" y="0px"
	 width="80px" height="70px" viewBox="0 0 80 70" enable-background="new 0 0 80 70" xml:space="preserve">
<g>
	<rect x="15.409" y="31.634" fill="#E7EAED" width="48.993" height="23.002"/>
	<rect x="15.409" y="15.302" fill="#CDD3DA" width="48.993" height="16.332"/>
	<rect x="42.248" y="19.384" fill="#364A5E" width="20.359" height="8.165"/>
	<rect x="43.877" y="21.019" fill="#62C5B7" width="17.096" height="4.898"/>
	<rect x="44.779" y="21.945" fill="#30B39D" width="7.865" height="0.49"/>
	<rect x="53.463" y="21.945" fill="#30B39D" width="4.186" height="0.49"/>
	<rect x="58.463" y="21.945" fill="#30B39D" width="1.613" height="0.49"/>
	<rect x="44.777" y="23.22" fill="#30B39D" width="2.416" height="0.49"/>
	<rect x="48.01" y="23.22" fill="#30B39D" width="12.066" height="0.49"/>
	<rect x="44.779" y="24.501" fill="#30B39D" width="3.824" height="0.49"/>
	<rect x="17.206" y="19.384" fill="#AAB5BE" width="15.923" height="8.165"/>
	<rect x="19.167" y="22.65" fill="#364A5E" width="12" height="1.636"/>
	<rect x="15.409" y="54.636" fill="#CDD3DA" width="48.993" height="12.246"/>
	<rect x="17.206" y="56.433" fill="#F3705B" width="45.402" height="8.654"/>
	<path fill="#364A5E" d="M41.131,60.76c0,0.676-0.549,1.225-1.225,1.225c-0.678,0-1.226-0.549-1.226-1.225
		c0-0.677,0.548-1.226,1.226-1.226C40.582,59.534,41.131,60.083,41.131,60.76"/>
	<polygon fill="#E7EAED" points="29.647,3.707 29.088,4.266 28.527,3.707 27.964,4.266 27.404,3.707 26.846,4.266 26.285,3.707 
		25.726,4.266 25.167,3.707 24.608,4.266 24.048,3.707 23.49,4.266 22.931,3.707 22.372,4.266 21.811,3.707 21.253,4.266 
		20.689,3.707 20.132,4.266 20.132,23.465 30.207,23.465 30.207,4.266 	"/>
	<rect x="21.573" y="5.525" fill="#AAB5BE" width="7.19" height="0.325"/>
	<rect x="21.573" y="6.426" fill="#AAB5BE" width="7.19" height="0.323"/>
	<rect x="21.573" y="7.329" fill="#AAB5BE" width="7.19" height="0.324"/>
	<rect x="21.573" y="8.229" fill="#AAB5BE" width="7.19" height="0.328"/>
	<rect x="21.573" y="9.132" fill="#AAB5BE" width="7.19" height="0.323"/>
	<rect x="21.573" y="10.032" fill="#AAB5BE" width="7.19" height="0.328"/>
	<rect x="21.573" y="10.934" fill="#AAB5BE" width="7.19" height="0.325"/>
	<rect x="21.573" y="11.839" fill="#AAB5BE" width="7.19" height="0.322"/>
	<rect x="21.573" y="12.739" fill="#AAB5BE" width="7.19" height="0.326"/>
	<rect x="21.573" y="13.641" fill="#AAB5BE" width="7.19" height="0.323"/>
	<rect x="21.573" y="14.545" fill="#AAB5BE" width="7.19" height="0.322"/>
	<rect x="21.573" y="15.443" fill="#AAB5BE" width="7.19" height="0.327"/>
	<rect x="21.573" y="16.347" fill="#AAB5BE" width="7.19" height="0.322"/>
	<rect x="21.573" y="17.25" fill="#AAB5BE" width="7.19" height="0.323"/>
	<path fill="#AAB5BE" d="M21.821,21.098c-0.137,0-0.248,0.112-0.248,0.249c0,0.135,0.111,0.249,0.248,0.249
		c0.136,0,0.248-0.113,0.248-0.249C22.069,21.209,21.957,21.098,21.821,21.098"/>
	<path fill="#AAB5BE" d="M22.775,21.098c-0.137,0-0.25,0.112-0.25,0.249c0,0.135,0.113,0.249,0.25,0.249
		c0.14,0,0.248-0.113,0.248-0.249C23.023,21.209,22.915,21.098,22.775,21.098"/>
	<path fill="#AAB5BE" d="M23.734,21.098c-0.136,0-0.248,0.112-0.248,0.249c0,0.135,0.112,0.249,0.248,0.249s0.249-0.113,0.249-0.249
		C23.983,21.209,23.87,21.098,23.734,21.098"/>
	<path fill="#AAB5BE" d="M24.688,21.098c-0.137,0-0.249,0.112-0.249,0.249c0,0.135,0.112,0.249,0.249,0.249
		c0.141,0,0.248-0.113,0.248-0.249C24.937,21.209,24.83,21.098,24.688,21.098"/>
	<path fill="#AAB5BE" d="M25.648,21.098c-0.137,0-0.249,0.112-0.249,0.249c0,0.135,0.111,0.249,0.249,0.249
		c0.133,0,0.248-0.113,0.248-0.249C25.896,21.209,25.781,21.098,25.648,21.098"/>
	<path fill="#AAB5BE" d="M26.601,21.098c-0.137,0-0.249,0.112-0.249,0.249c0,0.135,0.112,0.249,0.249,0.249
		c0.142,0,0.248-0.113,0.248-0.249C26.849,21.209,26.743,21.098,26.601,21.098"/>
	<path fill="#AAB5BE" d="M27.56,21.098c-0.136,0-0.248,0.112-0.248,0.249c0,0.135,0.112,0.249,0.248,0.249
		c0.137,0,0.249-0.113,0.249-0.249C27.809,21.209,27.697,21.098,27.56,21.098"/>
	<path fill="#AAB5BE" d="M28.514,21.098c-0.137,0-0.249,0.112-0.249,0.249c0,0.135,0.112,0.249,0.249,0.249
		c0.141,0,0.25-0.113,0.25-0.249C28.763,21.209,28.655,21.098,28.514,21.098"/>
	<rect x="50.791" y="11.872" fill="#AAB5BE" width="3.266" height="3.431"/>
	<rect x="42.248" y="3.707" fill="#E7EAED" width="20.359" height="8.165"/>
	<rect x="42.248" y="4.933" fill="#364A5E" width="20.359" height="5.713"/>
	<rect x="60.645" y="6.729" fill="#62C5B7" width="0.656" height="2.121"/>
	<rect x="58.613" y="6.729" fill="#62C5B7" width="0.656" height="2.121"/>
	<rect x="56.582" y="6.729" fill="#62C5B7" width="0.656" height="2.121"/>
	<rect x="54.551" y="6.729" fill="#62C5B7" width="0.656" height="2.121"/>
	<rect x="52.52" y="6.729" fill="#62C5B7" width="0.654" height="2.121"/>
	<rect x="17.205" y="33.431" fill="#F3705B" width="2.61" height="2.609"/>
	<rect x="21.643" y="33.431" fill="#F3705B" width="2.609" height="2.609"/>
	<rect x="26.082" y="33.431" fill="#AAB5BE" width="2.608" height="2.609"/>
	<rect x="17.205" y="37.866" fill="#F3705B" width="2.61" height="2.611"/>
	<rect x="21.643" y="37.866" fill="#F3705B" width="2.609" height="2.611"/>
	<rect x="26.082" y="37.866" fill="#AAB5BE" width="2.608" height="2.611"/>
	<rect x="17.205" y="42.304" fill="#AAB5BE" width="2.61" height="2.611"/>
	<rect x="21.643" y="42.304" fill="#AAB5BE" width="2.609" height="2.611"/>
	<rect x="26.082" y="42.304" fill="#AAB5BE" width="2.608" height="2.611"/>
	<rect x="17.205" y="46.74" fill="#AAB5BE" width="2.61" height="2.612"/>
	<rect x="21.643" y="46.74" fill="#AAB5BE" width="2.609" height="2.612"/>
	<rect x="26.082" y="46.74" fill="#AAB5BE" width="2.608" height="2.612"/>
	<rect x="31.945" y="33.431" fill="#364A5E" width="2.611" height="2.609"/>
	<rect x="31.945" y="37.866" fill="#364A5E" width="2.611" height="2.611"/>
	<rect x="31.945" y="42.304" fill="#364A5E" width="2.611" height="2.611"/>
	<rect x="31.945" y="46.74" fill="#364A5E" width="2.611" height="2.612"/>
	<rect x="36.383" y="33.431" fill="#364A5E" width="2.609" height="2.609"/>
	<rect x="36.383" y="37.866" fill="#364A5E" width="2.609" height="2.611"/>
	<rect x="36.383" y="42.304" fill="#364A5E" width="2.609" height="2.611"/>
	<rect x="36.383" y="46.74" fill="#364A5E" width="2.609" height="2.612"/>
	<rect x="46.686" y="33.431" fill="#AAB5BE" width="2.609" height="2.609"/>
	<rect x="51.121" y="33.431" fill="#AAB5BE" width="2.611" height="2.609"/>
	<rect x="55.559" y="33.431" fill="#AAB5BE" width="2.609" height="2.609"/>
	<rect x="59.996" y="33.431" fill="#AAB5BE" width="2.611" height="2.609"/>
	<rect x="46.686" y="37.866" fill="#AAB5BE" width="2.609" height="2.611"/>
	<rect x="51.121" y="37.866" fill="#AAB5BE" width="2.611" height="2.611"/>
	<rect x="55.559" y="37.866" fill="#AAB5BE" width="2.609" height="2.611"/>
	<rect x="59.996" y="37.866" fill="#AAB5BE" width="2.611" height="2.611"/>
	<rect x="46.686" y="42.304" fill="#AAB5BE" width="2.609" height="2.611"/>
	<rect x="51.121" y="42.304" fill="#AAB5BE" width="2.611" height="2.611"/>
	<rect x="55.559" y="42.304" fill="#AAB5BE" width="2.609" height="2.611"/>
	<rect x="59.996" y="42.304" fill="#AAB5BE" width="2.611" height="2.611"/>
	<rect x="46.686" y="46.74" fill="#AAB5BE" width="2.609" height="2.612"/>
	<rect x="42.248" y="33.431" fill="#AAB5BE" width="2.607" height="2.609"/>
	<rect x="42.248" y="37.866" fill="#AAB5BE" width="2.607" height="2.611"/>
	<rect x="42.248" y="42.304" fill="#AAB5BE" width="2.607" height="2.611"/>
	<rect x="42.248" y="46.74" fill="#AAB5BE" width="2.607" height="2.612"/>
	<rect x="51.121" y="46.74" fill="#AAB5BE" width="2.611" height="2.612"/>
	<rect x="55.559" y="46.74" fill="#AAB5BE" width="2.609" height="2.612"/>
	<rect x="59.996" y="46.74" fill="#AAB5BE" width="2.611" height="2.612"/>
</g>
</svg>
