<?xml version="1.0" encoding="utf-8"?>
<!-- Generator: Adobe Illustrator 16.0.0, SVG Export Plug-In . SVG Version: 6.00 Build 0)  -->
<!DOCTYPE svg PUBLIC "-//W3C//DTD SVG 1.1//EN" "http://www.w3.org/Graphics/SVG/1.1/DTD/svg11.dtd">
<svg version="1.1" id="Layer_1" xmlns="http://www.w3.org/2000/svg" xmlns:xlink="http://www.w3.org/1999/xlink" x="0px" y="0px"
	 width="80px" height="70px" viewBox="0 0 80 70" enable-background="new 0 0 80 70" xml:space="preserve">
<g>
	<rect x="19.25" y="5.839" fill="#E7EAED" width="41.555" height="58.769"/>
	<rect x="26.533" y="23.809" fill="#62C5B7" width="26.988" height="1.743"/>
	<rect x="26.533" y="31.861" fill="#364A5E" width="26.988" height="0.653"/>
	<rect x="26.533" y="33.712" fill="#364A5E" width="26.988" height="0.652"/>
	<rect x="26.533" y="35.563" fill="#364A5E" width="26.988" height="0.651"/>
	<rect x="26.533" y="37.411" fill="#364A5E" width="26.988" height="0.654"/>
	<rect x="34.779" y="39.263" fill="#364A5E" width="10.499" height="0.652"/>
	<rect x="26.533" y="30.013" fill="#364A5E" width="26.988" height="0.651"/>
	<rect x="26.533" y="28.162" fill="#364A5E" width="26.988" height="0.652"/>
	<rect x="19.25" y="5.839" fill="#62C5B7" width="41.555" height="13.059"/>
	<rect x="34.84" y="8.016" fill="#F6F9FB" width="21.256" height="1.741"/>
	<rect x="34.84" y="16.068" fill="#364A5E" width="3.763" height="0.655"/>
	<rect x="34.84" y="14.219" fill="#364A5E" width="7.523" height="0.652"/>
	<rect x="34.84" y="12.369" fill="#364A5E" width="7.523" height="0.652"/>
	<path fill="#F6F9FB" d="M30.133,12.369c0,2.405-1.948,4.354-4.352,4.354c-2.406,0-4.355-1.949-4.355-4.354
		c0-2.404,1.95-4.353,4.355-4.353C28.186,8.016,30.133,9.964,30.133,12.369"/>
	<polygon fill="#62C5B7" points="23.362,12.369 25.782,14.788 25.782,9.951 	"/>
	<polygon fill="#364A5E" points="28.197,12.369 25.781,14.788 25.781,9.951 	"/>
</g>
</svg>
