<?xml version="1.0" encoding="utf-8"?>
<!-- Generator: Adobe Illustrator 16.0.0, SVG Export Plug-In . SVG Version: 6.00 Build 0)  -->
<!DOCTYPE svg PUBLIC "-//W3C//DTD SVG 1.1//EN" "http://www.w3.org/Graphics/SVG/1.1/DTD/svg11.dtd">
<svg version="1.1" id="Layer_1" xmlns="http://www.w3.org/2000/svg" xmlns:xlink="http://www.w3.org/1999/xlink" x="0px" y="0px"
	 width="80px" height="70px" viewBox="0 0 80 70" enable-background="new 0 0 80 70" xml:space="preserve">
<g>
	<rect x="22.697" y="5.971" fill="#293B4D" width="42.553" height="60.176"/>
	<rect x="25.604" y="10.084" fill="#F6F9FB" width="36.737" height="51.951"/>
	<rect x="35.146" y="25.083" fill="#AAB5BE" width="21.268" height="1.065"/>
	<rect x="35.146" y="28.667" fill="#AAB5BE" width="21.268" height="1.067"/>
	<rect x="35.146" y="32.254" fill="#AAB5BE" width="21.268" height="1.071"/>
	<rect x="35.146" y="35.84" fill="#AAB5BE" width="21.268" height="1.072"/>
	<rect x="35.146" y="39.425" fill="#AAB5BE" width="21.268" height="1.074"/>
	<rect x="35.146" y="43.012" fill="#AAB5BE" width="21.268" height="1.073"/>
	<rect x="35.146" y="46.598" fill="#AAB5BE" width="21.268" height="1.073"/>
	<rect x="31.539" y="24.174" fill="#F3705B" width="1.978" height="1.975"/>
	<rect x="31.539" y="27.758" fill="#F3705B" width="1.978" height="1.976"/>
	<rect x="31.539" y="31.344" fill="#F3705B" width="1.978" height="1.982"/>
	<rect x="31.539" y="34.93" fill="#F3705B" width="1.978" height="1.982"/>
	<rect x="31.539" y="38.515" fill="#F3705B" width="1.978" height="1.983"/>
	<rect x="31.539" y="42.102" fill="#F3705B" width="1.978" height="1.981"/>
	<rect x="31.539" y="45.687" fill="#F3705B" width="1.978" height="1.982"/>
	<rect x="31.539" y="16.515" fill="#F3705B" width="24.875" height="2.563"/>
	<path fill="#E7EAED" d="M47.122,6.849c0-1.735-1.41-3.148-3.146-3.148c-1.74,0-3.147,1.413-3.147,3.148h-3.987v6.466h14.263V6.849
		H47.122z M43.976,5.783c0.589,0,1.071,0.479,1.071,1.065c0,0.59-0.482,1.069-1.071,1.069c-0.594,0-1.074-0.479-1.074-1.069
		C42.901,6.262,43.382,5.783,43.976,5.783"/>
	<path fill="#CDD3DA" d="M47.122,6.849c0-1.735-1.41-3.148-3.146-3.148c-1.74,0-3.147,1.413-3.147,3.148h-3.987v3.236h14.263V6.849
		H47.122z M43.976,5.783c0.589,0,1.071,0.479,1.071,1.065c0,0.59-0.482,1.069-1.071,1.069c-0.594,0-1.074-0.479-1.074-1.069
		C42.901,6.262,43.382,5.783,43.976,5.783"/>
	<rect x="36.841" y="9.409" fill="#F6F9FB" width="14.263" height="0.676"/>
	<rect x="36.841" y="10.084" fill="#AAB5BE" width="14.263" height="0.674"/>
	<polygon fill="#E7EAED" points="14.666,27.308 16.237,24.174 17.808,27.308 	"/>
	<rect x="14.666" y="27.308" fill="#364A5E" width="3.142" height="36.749"/>
	<rect x="16.238" y="27.308" fill="#293B4D" width="1.57" height="36.749"/>
	<polygon fill="#293B4D" points="15.623,25.401 16.237,24.174 16.851,25.401 	"/>
	<rect x="14.666" y="64.057" fill="#E7EAED" width="3.142" height="0.52"/>
	<path fill="#F3705B" d="M14.666,64.576h3.142c0,0.872-0.707,1.571-1.571,1.571C15.371,66.147,14.666,65.448,14.666,64.576"/>
</g>
</svg>
