<?xml version="1.0" encoding="utf-8"?>
<!-- Generator: Adobe Illustrator 16.0.0, SVG Export Plug-In . SVG Version: 6.00 Build 0)  -->
<!DOCTYPE svg PUBLIC "-//W3C//DTD SVG 1.1//EN" "http://www.w3.org/Graphics/SVG/1.1/DTD/svg11.dtd">
<svg version="1.1" id="Layer_1" xmlns="http://www.w3.org/2000/svg" xmlns:xlink="http://www.w3.org/1999/xlink" x="0px" y="0px"
	 width="80px" height="70px" viewBox="0 0 80 70" enable-background="new 0 0 80 70" xml:space="preserve">
<g>
	<path fill="#D8D9D8" d="M46.924,20.534L46.924,20.534c-0.215-0.421-0.162-0.918,0.145-1.368c0.322-0.48,0.395-1.203,0.238-1.506
		l-0.504-0.989c-0.16-0.311-0.035-0.692,0.275-0.851c0.309-0.157,0.689-0.035,0.848,0.277l0.508,0.989
		c0.383,0.752,0.246,1.951-0.32,2.787c-0.029,0.044-0.045,0.075-0.053,0.097c0.053,0.04,0.209,0.12,0.535,0.13l2.057,0.067
		c0.697,0.021,1.246,0.316,1.5,0.814c0.252,0.493,0.174,1.111-0.221,1.69l-1.152,1.703c-0.164,0.241-0.158,0.382-0.143,0.412
		c0.016,0.029,0.123,0.118,0.416,0.125l2.055,0.064c0.699,0.022,1.248,0.319,1.5,0.813c0.252,0.497,0.174,1.114-0.221,1.694
		l-1.15,1.704c-0.164,0.239-0.158,0.381-0.145,0.409c0.018,0.034,0.127,0.118,0.416,0.126l2.057,0.066
		c0.701,0.022,1.246,0.318,1.5,0.813c0.252,0.496,0.172,1.114-0.221,1.693l-1.152,1.702c-0.162,0.242-0.156,0.381-0.141,0.409
		c0.014,0.032,0.123,0.117,0.416,0.127l2.055,0.064c0.777,0.025,1.371,0.329,1.631,0.831c0.215,0.42,0.164,0.92-0.143,1.369
		c-0.273,0.402-0.305,1.383,0.061,2.096l6.547,12.817c0.156,0.311,0.035,0.692-0.277,0.852c-0.311,0.158-0.689,0.034-0.85-0.277
		l-6.549-12.816c-0.545-1.072-0.537-2.553,0.02-3.378c0.031-0.041,0.045-0.078,0.053-0.098c-0.049-0.039-0.209-0.12-0.533-0.13
		l-2.055-0.064c-0.701-0.021-1.248-0.318-1.504-0.816c-0.252-0.493-0.17-1.111,0.225-1.689l1.15-1.705
		c0.162-0.243,0.158-0.381,0.143-0.41c-0.014-0.029-0.125-0.116-0.416-0.125l-2.057-0.066c-0.699-0.021-1.248-0.32-1.498-0.814
		c-0.254-0.496-0.174-1.111,0.219-1.692l1.152-1.703c0.166-0.241,0.158-0.379,0.143-0.411c-0.016-0.028-0.125-0.116-0.414-0.125
		l-2.057-0.065c-0.701-0.021-1.246-0.316-1.5-0.812c-0.254-0.495-0.176-1.115,0.221-1.694l1.15-1.701
		c0.166-0.24,0.158-0.384,0.145-0.411c-0.016-0.031-0.125-0.117-0.418-0.125l-2.055-0.065
		C47.775,21.338,47.182,21.038,46.924,20.534"/>
	
		<rect x="56.613" y="45.506" transform="matrix(-0.4548 -0.8906 0.8906 -0.4548 49.8103 124.299)" fill="#CDD3DA" width="12.677" height="2.794"/>
	<path fill="#D8D9D8" d="M61.713,50.706h8.453V10.405c-2.164,0-4.326,0.824-5.979,2.476c-1.65,1.649-2.475,3.815-2.475,5.978V50.706
		z"/>
	<rect x="60.174" y="40.578" fill="#AAB5BE" width="9.992" height="14.344"/>
	<rect x="67.846" y="20.631" fill="#AAB5BE" width="0.537" height="10.57"/>
	<polygon fill="#D8D9D8" points="18.626,52.43 13.734,47.541 43.641,21.982 46.357,24.701 	"/>
	<polygon fill="#AAB5BE" points="25.688,46.702 20.626,41.643 13.734,47.54 19.294,53.096 	"/>
	<rect x="45.023" y="24.7" fill="#D8D9D8" width="1.332" height="1.334"/>
	<rect x="43.691" y="26.033" fill="#D8D9D8" width="1.334" height="1.333"/>
	<rect x="42.358" y="27.365" fill="#D8D9D8" width="1.332" height="1.333"/>
	<rect x="41.024" y="28.698" fill="#D8D9D8" width="1.334" height="1.337"/>
	<rect x="39.691" y="30.033" fill="#D8D9D8" width="1.334" height="1.333"/>
	<rect x="38.358" y="31.365" fill="#D8D9D8" width="1.333" height="1.333"/>
	<rect x="37.024" y="32.699" fill="#D8D9D8" width="1.334" height="1.333"/>
	<rect x="35.691" y="34.032" fill="#D8D9D8" width="1.333" height="1.333"/>
	<rect x="34.357" y="35.364" fill="#D8D9D8" width="1.333" height="1.335"/>
	<rect x="33.025" y="36.699" fill="#D8D9D8" width="1.332" height="1.333"/>
	<rect x="31.69" y="38.033" fill="#D8D9D8" width="1.334" height="1.333"/>
	<rect x="30.357" y="39.366" fill="#D8D9D8" width="1.334" height="1.333"/>
	<rect x="29.024" y="40.7" fill="#D8D9D8" width="1.332" height="1.333"/>
	<rect x="27.69" y="42.034" fill="#D8D9D8" width="1.332" height="1.333"/>
	<rect x="26.358" y="43.365" fill="#D8D9D8" width="1.334" height="1.335"/>
	<rect x="13.3" y="20.631" fill="#D8D9D8" width="3.075" height="19.947"/>
	<rect x="12.146" y="40.579" fill="#AAB5BE" width="5.379" height="8.068"/>
	<path fill="#F3705B" d="M71.027,46.523c-1.51-1.512-3.492-2.268-5.473-2.268H14.837c-1.982,0-3.964,0.756-5.474,2.268
		c-1.511,1.51-2.268,3.492-2.268,5.474c0,1.98,0.757,3.961,2.268,5.474c1.51,1.512,3.492,2.267,5.474,2.267h50.718
		c1.98,0,3.963-0.755,5.473-2.267c1.514-1.513,2.27-3.493,2.27-5.474C73.297,50.016,72.541,48.033,71.027,46.523"/>
	<path fill="#364A5E" d="M67.928,51.997c0,1.312-1.063,2.374-2.373,2.374s-2.373-1.063-2.373-2.374c0-1.309,1.063-2.373,2.373-2.373
		S67.928,50.688,67.928,51.997"/>
	<path fill="#E7EAED" d="M66.586,51.997c0,0.568-0.463,1.033-1.031,1.033c-0.57,0-1.033-0.465-1.033-1.033
		c0-0.569,0.463-1.034,1.033-1.034C66.123,50.963,66.586,51.428,66.586,51.997"/>
	<path fill="#364A5E" d="M17.211,51.997c0,1.312-1.064,2.374-2.374,2.374s-2.375-1.063-2.375-2.374c0-1.309,1.065-2.373,2.375-2.373
		S17.211,50.688,17.211,51.997"/>
	<path fill="#E7EAED" d="M15.868,51.997c0,0.568-0.464,1.033-1.031,1.033c-0.571,0-1.032-0.465-1.032-1.033
		c0-0.569,0.461-1.034,1.032-1.034C15.404,50.963,15.868,51.428,15.868,51.997"/>
</g>
</svg>
