<?xml version="1.0" encoding="utf-8"?>
<!-- Generator: Adobe Illustrator 16.0.0, SVG Export Plug-In . SVG Version: 6.00 Build 0)  -->
<!DOCTYPE svg PUBLIC "-//W3C//DTD SVG 1.1//EN" "http://www.w3.org/Graphics/SVG/1.1/DTD/svg11.dtd">
<svg version="1.1" id="Layer_1" xmlns="http://www.w3.org/2000/svg" xmlns:xlink="http://www.w3.org/1999/xlink" x="0px" y="0px"
	 width="80px" height="70px" viewBox="0 0 80 70" enable-background="new 0 0 80 70" xml:space="preserve">
<g>
	<path fill="#364A5E" d="M71.242,14.738c-0.4-0.403-0.936-0.608-1.484-0.608H10.726c-0.543,0-1.078,0.205-1.483,0.608
		c-0.412,0.41-0.61,0.949-0.61,1.484v36.48h63.22v-36.48C71.852,15.687,71.658,15.148,71.242,14.738"/>
	<path fill="#5E6E7F" d="M41.131,15.741c0,0.488-0.403,0.887-0.889,0.887c-0.489,0-0.888-0.398-0.888-0.887
		c0-0.49,0.399-0.889,0.888-0.889C40.728,14.852,41.131,15.25,41.131,15.741"/>
	<path fill="#F6F9FB" d="M40.622,15.741c0,0.207-0.167,0.377-0.38,0.377c-0.211,0-0.379-0.17-0.379-0.377
		c0-0.212,0.168-0.38,0.379-0.38C40.455,15.36,40.622,15.529,40.622,15.741"/>
	<path fill="#AAB5BE" d="M1.923,53.891c2.916,1.297,6.138,2.004,9.524,2.004h57.59c3.389,0,6.607-0.707,9.523-2.004H1.923z"/>
	<rect x="1.923" y="52.702" fill="#E7EAED" width="76.638" height="1.189"/>
	<rect x="33.591" y="52.702" fill="#364A5E" width="13.304" height="0.594"/>
	<rect x="11.479" y="17.234" fill="#F6F9FB" width="56.638" height="35.353"/>
	<g>
		<path fill="#F3705B" d="M26.94,33.548l-0.918,1.207v0.02l1.458-0.194v0.657l-1.458-0.174v0.019l0.927,1.158l-0.608,0.349
			l-0.58-1.352h-0.019l-0.628,1.362l-0.55-0.35l0.917-1.178v-0.019l-1.43,0.184v-0.657l1.42,0.184v-0.019l-0.907-1.179l0.589-0.337
			l0.599,1.342h0.02l0.588-1.353L26.94,33.548z"/>
		<path fill="#F3705B" d="M30.949,33.548l-0.917,1.207v0.02l1.458-0.194v0.657l-1.458-0.174v0.019l0.927,1.158L30.35,36.59
			l-0.579-1.352h-0.019l-0.628,1.362l-0.55-0.35l0.917-1.178v-0.019l-1.429,0.184v-0.657l1.419,0.184v-0.019l-0.908-1.179
			l0.588-0.337l0.599,1.342h0.019l0.59-1.353L30.949,33.548z"/>
		<path fill="#F3705B" d="M34.958,33.548l-0.917,1.207v0.02l1.457-0.194v0.657l-1.457-0.174v0.019l0.927,1.158l-0.609,0.349
			l-0.58-1.352h-0.019l-0.628,1.362l-0.55-0.35l0.917-1.178v-0.019l-1.429,0.184v-0.657l1.419,0.184v-0.019l-0.907-1.179
			l0.587-0.337l0.6,1.342h0.019l0.59-1.353L34.958,33.548z"/>
		<path fill="#F3705B" d="M38.967,33.548l-0.918,1.207v0.02l1.458-0.194v0.657l-1.458-0.174v0.019l0.927,1.158l-0.608,0.349
			l-0.58-1.352H37.77l-0.628,1.362l-0.551-0.35l0.917-1.178v-0.019l-1.429,0.184v-0.657l1.42,0.184v-0.019l-0.909-1.179l0.589-0.337
			l0.599,1.342h0.019l0.59-1.353L38.967,33.548z"/>
		<path fill="#F3705B" d="M42.977,33.548l-0.918,1.207v0.02l1.457-0.194v0.657l-1.457-0.174v0.019l0.926,1.158l-0.605,0.349
			l-0.58-1.352h-0.02l-0.629,1.362l-0.55-0.35l0.917-1.178v-0.019l-1.429,0.184v-0.657l1.419,0.184v-0.019l-0.907-1.179l0.589-0.337
			l0.6,1.342h0.018l0.59-1.353L42.977,33.548z"/>
		<path fill="#F3705B" d="M46.984,33.548l-0.916,1.207v0.02l1.457-0.194v0.657l-1.457-0.174v0.019l0.926,1.158l-0.607,0.349
			l-0.58-1.352h-0.018l-0.629,1.362l-0.551-0.35l0.918-1.178v-0.019l-1.43,0.184v-0.657l1.42,0.184v-0.019l-0.908-1.179l0.59-0.337
			l0.6,1.342h0.018l0.59-1.353L46.984,33.548z"/>
		<path fill="#F3705B" d="M50.996,33.548l-0.918,1.207v0.02l1.457-0.194v0.657l-1.457-0.174v0.019l0.926,1.158l-0.609,0.349
			l-0.578-1.352h-0.02l-0.629,1.362l-0.549-0.35l0.916-1.178v-0.019l-1.428,0.184v-0.657l1.418,0.184v-0.019l-0.906-1.179
			l0.59-0.337l0.598,1.342h0.02l0.588-1.353L50.996,33.548z"/>
		<path fill="#F3705B" d="M55.004,33.548l-0.918,1.207v0.02l1.457-0.194v0.657l-1.457-0.174v0.019l0.928,1.158l-0.609,0.349
			l-0.578-1.352h-0.02l-0.629,1.362l-0.551-0.35l0.918-1.178v-0.019l-1.428,0.184v-0.657l1.418,0.184v-0.019l-0.908-1.179
			l0.59-0.337l0.6,1.342h0.02l0.588-1.353L55.004,33.548z"/>
	</g>
</g>
</svg>
