<?xml version="1.0" encoding="utf-8"?>
<!-- Generator: Adobe Illustrator 16.0.0, SVG Export Plug-In . SVG Version: 6.00 Build 0)  -->
<!DOCTYPE svg PUBLIC "-//W3C//DTD SVG 1.1//EN" "http://www.w3.org/Graphics/SVG/1.1/DTD/svg11.dtd">
<svg version="1.1" id="Layer_1" xmlns="http://www.w3.org/2000/svg" xmlns:xlink="http://www.w3.org/1999/xlink" x="0px" y="0px"
	 width="80px" height="70px" viewBox="0 0 80 70" enable-background="new 0 0 80 70" xml:space="preserve">
<g>
	<rect x="29.146" y="48.992" fill="#364A5E" width="10.197" height="3.934"/>
	<rect x="33.146" y="18.496" fill="#30B39D" width="39.344" height="34.43"/>
	<path fill="#293B4D" d="M61.702,22.923c0-0.936,0.754-1.693,1.687-1.693c0.936,0,1.695,0.758,1.695,1.693
		c0,0.936-0.76,1.69-1.695,1.69C62.456,24.613,61.702,23.859,61.702,22.923"/>
	<path fill="#293B4D" d="M40.551,22.923c0-0.936,0.758-1.693,1.69-1.693c0.93,0,1.696,0.758,1.696,1.693
		c0,0.936-0.767,1.69-1.696,1.69C41.309,24.613,40.551,23.859,40.551,22.923"/>
	<path fill="#CDD3DA" d="M63.394,23.533c-0.336,0-0.609-0.273-0.609-0.61v-5.601c0-2.659-1.04-5.165-2.92-7.046
		c-1.885-1.879-4.384-2.918-7.043-2.918c-2.663,0-5.162,1.039-7.051,2.918c-1.881,1.881-2.913,4.387-2.913,7.046v5.601
		c0,0.337-0.272,0.61-0.616,0.61c-0.332,0-0.611-0.273-0.611-0.61v-5.601c0-2.987,1.167-5.795,3.275-7.911
		c2.117-2.113,4.927-3.277,7.916-3.277c2.985,0,5.794,1.164,7.906,3.277c2.115,2.115,3.277,4.925,3.277,7.911v5.601
		C64.005,23.26,63.731,23.533,63.394,23.533"/>
	<path fill="#FFD162" d="M12.753,36.201c0-1.76,0.673-3.526,2.016-4.869c1.343-1.344,3.11-2.016,4.869-2.016h12.133v13.77H12.753
		V36.201z"/>
	<path fill="#F6F9FB" d="M16.688,43.086v-6.885c0-0.79,0.305-1.529,0.865-2.085c0.556-0.556,1.295-0.865,2.085-0.865h8.199v9.835
		H16.688z"/>
	<path fill="#FFD162" d="M6.854,47.021c0-1.005,0.381-2.014,1.152-2.777c0.765-0.772,1.771-1.157,2.784-1.157h20.98v9.84H6.854
		V47.021z"/>
	<rect x="6.854" y="47.021" fill="#F3705B" width="2.455" height="2.754"/>
	<rect x="25.539" y="47.021" fill="#293B4D" width="2.297" height="1.38"/>
	<polygon fill="#364A5E" points="39.44,48.992 39.44,52.926 5.474,52.926 5.474,56.857 73.868,56.857 73.868,48.992 	"/>
	<path fill="#293B4D" d="M24.063,56.857c0,4.08-3.298,7.379-7.375,7.379c-4.074,0-7.379-3.299-7.379-7.379
		c0-4.07,3.305-7.376,7.379-7.376C20.764,49.481,24.063,52.787,24.063,56.857"/>
	<path fill="#F6F9FB" d="M20.904,56.857c0,2.327-1.887,4.22-4.216,4.22c-2.328,0-4.214-1.893-4.214-4.22
		c0-2.323,1.887-4.218,4.214-4.218C19.017,52.64,20.904,54.534,20.904,56.857"/>
	<path fill="#293B4D" d="M18.029,56.857c0,0.745-0.601,1.343-1.341,1.343c-0.739,0-1.339-0.598-1.339-1.343
		c0-0.742,0.6-1.342,1.339-1.342C17.429,55.516,18.029,56.115,18.029,56.857"/>
	<path fill="#293B4D" d="M69.915,56.857c0,4.08-3.308,7.379-7.381,7.379c-4.074,0-7.376-3.299-7.376-7.379
		c0-4.07,3.302-7.376,7.376-7.376C66.607,49.481,69.915,52.787,69.915,56.857"/>
	<path fill="#F6F9FB" d="M66.752,56.857c0,2.327-1.891,4.22-4.218,4.22c-2.323,0-4.216-1.893-4.216-4.22
		c0-2.323,1.893-4.218,4.216-4.218C64.861,52.64,66.752,54.534,66.752,56.857"/>
	<path fill="#293B4D" d="M63.874,56.857c0,0.745-0.601,1.343-1.34,1.343c-0.741,0-1.34-0.598-1.34-1.343
		c0-0.742,0.599-1.342,1.34-1.342C63.273,55.516,63.874,56.115,63.874,56.857"/>
</g>
</svg>
