<?xml version="1.0" encoding="utf-8"?>
<!-- Generator: Adobe Illustrator 16.0.0, SVG Export Plug-In . SVG Version: 6.00 Build 0)  -->
<!DOCTYPE svg PUBLIC "-//W3C//DTD SVG 1.1//EN" "http://www.w3.org/Graphics/SVG/1.1/DTD/svg11.dtd">
<svg version="1.1" id="Layer_1" xmlns="http://www.w3.org/2000/svg" xmlns:xlink="http://www.w3.org/1999/xlink" x="0px" y="0px"
	 width="80px" height="70px" viewBox="0 0 80 70" enable-background="new 0 0 80 70" xml:space="preserve">
<g>
	<path fill="#F3705B" d="M69.486,19.381c-0.452-0.453-1.043-0.678-1.635-0.678H26.58v28.625h41.272c0.592,0,1.183-0.225,1.635-0.676
		c0.454-0.455,0.681-1.049,0.681-1.643V21.021C70.167,20.427,69.94,19.833,69.486,19.381 M32.537,42.619
		c0,0.674-0.55,1.225-1.22,1.225c-0.67,0-1.225-0.551-1.225-1.225V23.398c0-0.672,0.555-1.219,1.225-1.219
		c0.67,0,1.22,0.547,1.22,1.219V42.619z M38.223,42.619c0,0.674-0.551,1.225-1.224,1.225c-0.667,0-1.217-0.551-1.217-1.225V23.398
		c0-0.672,0.549-1.219,1.217-1.219c0.673,0,1.224,0.547,1.224,1.219V42.619z M43.91,42.619c0,0.674-0.555,1.225-1.224,1.225
		c-0.674,0-1.221-0.551-1.221-1.225V23.398c0-0.672,0.547-1.219,1.221-1.219c0.669,0,1.224,0.547,1.224,1.219V42.619z
		 M49.594,42.619c0,0.674-0.554,1.225-1.221,1.225c-0.673,0-1.221-0.551-1.221-1.225V23.398c0-0.672,0.548-1.219,1.221-1.219
		c0.667,0,1.221,0.547,1.221,1.219V42.619z M55.275,42.619c0,0.674-0.547,1.225-1.218,1.225c-0.674,0-1.218-0.551-1.218-1.225
		V23.398c0-0.672,0.544-1.219,1.218-1.219c0.671,0,1.218,0.547,1.218,1.219V42.619z M60.962,42.619c0,0.674-0.548,1.225-1.22,1.225
		c-0.671,0-1.215-0.551-1.215-1.225V23.398c0-0.672,0.544-1.219,1.215-1.219c0.672,0,1.22,0.547,1.22,1.219V42.619z M66.647,42.619
		c0,0.674-0.55,1.225-1.222,1.225c-0.669,0-1.214-0.551-1.214-1.225V23.398c0-0.672,0.545-1.219,1.214-1.219
		c0.672,0,1.222,0.547,1.222,1.219V42.619z"/>
	<path fill="#CDD3DA" d="M59.515,59.092H23.681V12.443c0-0.696-0.271-1.352-0.765-1.845c-0.49-0.492-1.144-0.763-1.841-0.763h-2.339
		V6.938h2.339c1.47,0,2.852,0.572,3.891,1.612c1.041,1.039,1.614,2.421,1.614,3.893v43.754h32.935V59.092z"/>
	<path fill="#364A5E" d="M30.637,57.645c0,3.039-2.466,5.506-5.506,5.506c-3.042,0-5.506-2.467-5.506-5.506s2.465-5.506,5.506-5.506
		C28.171,52.139,30.637,54.605,30.637,57.645"/>
	<path fill="#F6F9FB" d="M27.737,57.645c0,1.439-1.169,2.607-2.607,2.607c-1.441,0-2.606-1.168-2.606-2.607s1.165-2.607,2.606-2.607
		C26.568,55.037,27.737,56.205,27.737,57.645"/>
	<path fill="#364A5E" d="M65.02,57.645c0,3.039-2.466,5.506-5.505,5.506s-5.505-2.467-5.505-5.506s2.466-5.506,5.505-5.506
		S65.02,54.605,65.02,57.645"/>
	<path fill="#F6F9FB" d="M62.122,57.645c0,1.439-1.168,2.607-2.607,2.607c-1.44,0-2.609-1.168-2.609-2.607s1.169-2.607,2.609-2.607
		C60.954,55.037,62.122,56.205,62.122,57.645"/>
	<path fill="#364A5E" d="M10.043,9.835c0,0.073,0.029,0.148,0.083,0.205c0.057,0.056,0.132,0.085,0.207,0.085h8.112
		c0.074,0,0.15-0.029,0.205-0.085c0.057-0.056,0.085-0.131,0.085-0.205V6.938c0-0.076-0.029-0.148-0.085-0.205
		c-0.055-0.057-0.131-0.085-0.205-0.085h-8.112c-0.074,0-0.149,0.028-0.207,0.085c-0.055,0.057-0.083,0.129-0.083,0.205V9.835z"/>
</g>
</svg>
