<?xml version="1.0" encoding="utf-8"?>
<!-- Generator: Adobe Illustrator 16.0.0, SVG Export Plug-In . SVG Version: 6.00 Build 0)  -->
<!DOCTYPE svg PUBLIC "-//W3C//DTD SVG 1.1//EN" "http://www.w3.org/Graphics/SVG/1.1/DTD/svg11.dtd">
<svg version="1.1" id="Layer_1" xmlns="http://www.w3.org/2000/svg" xmlns:xlink="http://www.w3.org/1999/xlink" x="0px" y="0px"
	 width="80px" height="70px" viewBox="0 0 80 70" enable-background="new 0 0 80 70" xml:space="preserve">
<path fill="#F3705B" d="M39.9,44.404c-16.153,0-29.298,5.267-29.799,16.828c0.21,1.934,1.849,3.439,3.842,3.439h51.915
	c1.992,0,3.631-1.506,3.842-3.439C69.197,49.671,56.053,44.404,39.9,44.404z"/>
<path fill="#CC5A47" d="M39.887,44.388c-16.153,0-29.298,5.266-29.799,16.826c0.21,1.936,1.849,3.44,3.842,3.44h10.356l9.692-9.953
	h11.606l-0.508-10.118C43.391,44.455,41.66,44.388,39.887,44.388"/>
<path fill="#B5D5CE" d="M39.974,48.917l-5.803,5.796l-8.809-8.796l5.853-5.845L39.974,48.917z"/>
<path fill="#B5D5CE" d="M39.974,48.917l5.804,5.796l8.809-8.796l-5.854-5.845L39.974,48.917z"/>
<path fill="#D19090" d="M31.104,40.415l8.826,8.814l8.913-8.9L31.104,40.415z"/>
<path fill="#283A4D" d="M57.055,22.208c0,9.442-7.664,17.096-17.121,17.096c-9.456,0-17.12-7.654-17.12-17.096
	s7.665-17.096,17.12-17.096C49.391,5.112,57.055,12.766,57.055,22.208z"/>
<path fill="#283A4D" d="M26.687,21.231l-3.695,3.689c0.78,4.314,3.177,8.067,6.547,10.604L26.687,21.231"/>
<path fill="#FFD76B" d="M53.189,30.429c0,7.31-5.936,13.235-13.255,13.235l0,0c-7.32,0-13.254-5.926-13.254-13.235V18.33
	c0-7.31,5.934-13.235,13.254-13.235l0,0c7.32,0,13.255,5.925,13.255,13.235V30.429z"/>
<path fill="#D9B75A" d="M39.934,5.096c-7.321,0-13.254,5.926-13.254,13.235V30.43c0,7.274,5.877,13.176,13.148,13.233V22.192h13.361
	v-3.862C53.189,11.021,47.254,5.096,39.934,5.096"/>
<path fill="#283A4D" d="M26.56,21.643l8.101-8.089c0,0,1.84,8.723,18.408,8.723c1.393,0,2.043-17.165-13.48-17.165
	C24.066,5.112,26.56,21.643,26.56,21.643z"/>
</svg>
