<?xml version="1.0" encoding="utf-8"?>
<!-- Generator: Adobe Illustrator 16.0.0, SVG Export Plug-In . SVG Version: 6.00 Build 0)  -->
<!DOCTYPE svg PUBLIC "-//W3C//DTD SVG 1.1//EN" "http://www.w3.org/Graphics/SVG/1.1/DTD/svg11.dtd">
<svg version="1.1" id="Layer_1" xmlns="http://www.w3.org/2000/svg" xmlns:xlink="http://www.w3.org/1999/xlink" x="0px" y="0px"
	 width="80px" height="70px" viewBox="0 0 80 70" enable-background="new 0 0 80 70" xml:space="preserve">
<polygon fill="#E7EAED" points="64.188,31.884 39.593,31.884 46.568,22.094 71.164,22.094 "/>
<polygon fill="#CDD3DA" points="15.002,31.884 39.596,31.884 32.617,22.094 8.027,22.094 "/>
<path fill="#364A5E" d="M59.113,27.956c0,10.776-8.737,19.519-19.521,19.519c-10.78,0-19.517-8.742-19.517-19.519
	c0-10.781,8.737-19.516,19.517-19.516C50.376,8.44,59.113,17.175,59.113,27.956"/>
<path fill="#F6F9FB" d="M35.028,44.271c0.077,0.015,0.287-0.059,0.35-0.072c-0.148-0.118-0.463-0.131-0.647-0.241
	c0.015,0.006-0.583-0.36-0.455-0.058c0.029,0.07,0.144,0.004,0.196,0.043c-0.07,0.106-0.106,0.076-0.027,0.123
	c0-0.002-0.665-0.363,0.007-0.387c-0.469-0.416,0.026-0.287-0.117-0.552c-0.103-0.178,0.391-0.351,0.125-0.508
	c-0.123-0.073-0.268-0.062-0.398-0.149c-0.184-0.131-0.007-0.367,0.165-0.349c0.013,0,0.108-0.419,0.137-0.486
	c-0.049-0.019-0.39-0.446-0.309-0.534c0.103-0.107,0.55,0.275,0.662-0.01c0.043-0.1-0.16-0.378-0.144-0.492
	c0.206-0.021,1.534,0.029,1.312-0.58c-0.08-0.209-0.644-0.529-0.584-0.699c0.197,0.025,0.521,0.31,0.727,0.197
	c0.173-0.09,0.308,0.094,0.487-0.106c0.031-0.032,0.325-0.347,0.245-0.41c-0.091,0-0.139,0.047-0.149,0.155
	c-0.104-0.141,0.078-0.246,0.17-0.348c0.027,0.032,0.045,0.064,0.068,0.094c0.109-0.17,0.727-0.975,0.75-0.987
	c0.315-0.367,0.053-0.856,0.368-1.153c0.282-0.266,0.59-0.443,0.949-0.582c0.11-0.046,0.5-0.252,0.58-0.229
	c0.655,0.199,0.577-0.58,0.992-0.933c0.422-0.354,0.11-2.159,0.458-2.293c0.188-0.073,0.744-0.761,1.027-1.074
	c0.281-0.299,0.318-0.688,0.211-1.069c-0.168-0.585-0.334-0.25-0.754-0.503c-0.343-0.206-0.601-0.607-1.021-0.666
	c-0.246-0.032-0.503,0.042-0.748-0.031c-0.101-0.032-0.381-0.202-0.487-0.058c0.018-0.024-0.229,0.089-0.207,0.096
	c-0.032-0.015-0.005-0.318-0.087-0.391c-0.127-0.123-0.565-0.246-0.719-0.289c-0.362-0.093-0.454,0.338-0.548-0.177
	c-0.299-0.08-0.598-0.431-0.545-0.516c0.026-0.039-0.47-1.078-0.536-0.982c-0.007-0.35-1.092-0.785-1.368-0.618
	c-0.249,0.182-0.703-0.163-0.857-0.327c-0.173-0.188-0.165-0.384-0.453-0.504c-0.121-0.053-0.336-0.028-0.291-0.239
	c0.053-0.223-0.53-0.269-0.585-0.484c0.082,0.015,0.15-0.027,0.226-0.047c-0.224,0.077-0.502-0.086-0.725,0.096
	c-0.325,0.272-0.522-0.127-0.878-0.058c-0.449,0.087-0.146-0.077-0.433-0.252c0.117,0.074-0.529-0.294-0.377-0.282
	c-0.135-0.018,0.021,0.222-0.13,0.276c-0.238,0.087-0.438,0.139-0.287,0.422c0.261,0.52-0.54,0.276-0.164-0.078
	c0.07-0.061,0.085-0.735,0.161-0.709c-0.093-0.033-0.825,0.444-0.907,0.543c-0.237-0.376-0.635,0.932-0.767,0.94
	c-0.069-0.321-0.376-0.452-0.635-0.548c-0.235-0.089-0.463,0.456-0.755,0.157c-0.53-0.534-0.297-1.396-0.033-2.004
	c0.116-0.284-0.972-0.367-1.107-0.256c-0.262,0.218,0.046-0.444,0.043-0.426c0.027-0.268,0.09-0.445,0.208-0.441
	c0.068-0.158,0.476-0.883,0.433-0.969c-0.161-0.381-0.848,0.292-0.916,0.461c-0.066,0.166-0.2,0.258-0.262,0.409
	c-0.063,0.148-0.191-0.034-0.303,0.026c-0.296,0.167-0.713,0.08-0.651-0.352c0.068-0.517-0.132-1.538,0.452-1.893
	c0.176-0.111,0.202-0.623,0.41-0.806c0.025-0.023,0.614-0.363,0.554-0.431c0.086,0.091,0.547-0.095,0.609,0.025
	c0.041,0.101,0.316,0.204,0.412,0.148c-0.007,0.014,0.046-0.229,0.046-0.231c-0.007-0.003-0.19-0.027-0.179-0.085
	c0.016-0.081,0.568-0.027,0.588-0.024c0.258,0.02,0.454,0.237,0.646,0.106c0.3-0.206,0.117,1.136,0.237,1.257
	c0.065,0.074,0.017,0.234,0.143,0.223c0.173-0.02,0.227-1.743,0.669-2.098c0.326-0.263,0.677-0.496,1.038-0.693
	c0.116-0.058,0.414-0.202,0.475-0.312c-0.017-0.057-0.073-0.124-0.129-0.064c-0.021-0.104,0.159-0.04,0.191-0.15
	c0.031-0.112-0.094-0.148-0.08-0.186c-0.005,0.009,0.111-0.226,0.073-0.193c0.002,0.005,0.007,0.015,0.008,0.023
	c0.184,0.031-0.039-0.169-0.045-0.196c0.233,0.121,0.133-0.257,0.365-0.277c-0.167,0.071-0.133,0.253-0.112,0.365
	c0.046,0.245,0.262-0.341,0.239-0.317c0.216-0.09,0.56-0.273,0.794-0.441c-0.055-0.021-0.113,0.022-0.178-0.024
	c0.242-0.087,0.507-0.058,0.742-0.176c-0.016-0.244,0.13-0.496,0.4-0.544c0.417-0.069,0.905-0.321,1.323-0.464
	c-0.063,0.144,0.036,0.034,0.147,0.088c-0.135-0.353-0.874,0.654-0.521,0.446c0.297-0.171,1.298-0.325,1.433-0.613
	c-0.004-0.017-0.064-0.208-0.064-0.208c-0.247,0-0.267,0.304-0.571,0.304c-0.553-0.008-0.223-0.349-0.337-0.499
	c-0.094,0.022-0.182-0.006-0.25-0.08c0.057-0.014,0.738-0.17,0.379-0.253c-0.583-0.123-0.97,0.527-1.453,0.511
	c0.36-0.221,0.848-0.688,1.284-0.746c0.461-0.064,1.106,0.163,1.513-0.125c0.362-0.252,0.612-0.065,0.82-0.475
	c0.063-0.113-0.268-0.252-0.35-0.272c0.035-0.041,0.112,0,0.135-0.067c-0.548-0.246-0.663-0.489-0.728-1.12
	c-0.274,0.203-1.21,0.636-0.71-0.069c-0.179-0.077-0.748-0.551-0.966-0.223c-0.104,0.146-0.259,0.394-0.427,0.467
	c-0.371,0.171-0.041,0.136-0.167,0.384c-0.209,0.412-0.712,0.354-0.953,0.713c-0.151,0.226-0.197,0.382-0.437,0.489
	c-0.204,0.09-0.282-0.151-0.181-0.344c0.07,0.081,0.138,0.092,0.196,0.034c0.017-0.085-0.11-0.046-0.146-0.081
	c0.071-0.127,0.159-0.244,0.263-0.347c-0.031-0.021-0.558-0.105-0.541-0.241c0.037-0.288-0.324-0.129-0.387-0.214
	c0.281-0.354,0.284-0.519,0.828-0.795c0.194-0.094,1.248-0.634,1.441-0.498c-0.028,0.12-0.159,0.094-0.227,0.158
	c0.152,0.038,0.594,0.086,0.742-0.018c-0.03-0.029-0.209-0.322-0.119-0.392c-0.015,0.012,0.302,0.006,0.329,0
	c0.166-0.041,0.353-0.062,0.451-0.236c0.082-0.153,0.638-0.349,0.771-0.275c0.728,0.415-0.99,0.854-1.001,0.804
	c0.034,0.121,0.497-0.081,0.611,0.238c0.026,0.076,0.556,0.246,0.607,0.172c0.028-0.037-0.15-0.229-0.162-0.278
	c0.554,0.268,0.526,0.131,0.431-0.239c-0.082-0.354,0.325,0.023,0.35,0.034c0.089,0.05,0.462-0.168,0.518-0.243
	c-0.134-0.104-0.369-0.1-0.485-0.229c-0.108-0.11,0.291-0.137,0.152-0.251c-0.167-0.138-0.434-0.103-0.344-0.371
	c-0.089-0.024-0.185-0.015-0.269,0.036c0.022,0.048,0.078,0.012,0.102,0.04c-0.093,0.055-0.196,0.064-0.297,0.062
	c0.03-0.049,0.123-0.049,0.125-0.139c-0.288-0.033-0.435,0.139-0.684,0.213c0.07-0.1,0.19-0.132,0.273-0.209
	c-0.269,0.037-0.529,0.137-0.746,0.313c0.035,0.032,0.063,0.061,0.082,0.102c-0.205,0.186-0.483,0.241-0.726,0.354
	c0.039-0.167,0.215-0.125,0.273-0.247c-0.087,0-0.176,0.019-0.255,0.057c0.104-0.011,0.413-0.317,0.483-0.398
	c-0.45-0.047-0.633,0.523-1.051,0.442c0.084-0.101,0.262-0.05,0.321-0.208c-0.156,0.019-0.741,0.417-0.841,0.208
	c-0.004-0.013,1.079-0.442,1.192-0.597c-0.075-0.009-0.155,0.069-0.222-0.019c0.053-0.06,0.141-0.066,0.199-0.131
	c-0.348-0.002-1.406,0.426-1.323,0.673c-0.135,0.112-0.286,0.143-0.451,0.072c0.066-0.102,0.293-0.104,0.106-0.253
	c-0.337,0.127-0.671,0.265-1.002,0.41c-0.753,0.338-1.5,0.736-2.211,1.172c-1.17,0.72-2.129,1.575-3.094,2.542
	c-0.512,0.521-2.464,2.797-2.459,3.271c0.005,0.353-0.197,0.662-0.331,0.978c-0.106,0.257-0.114,0.62-0.246,0.858
	c-0.283,0.504-0.154,1.087-0.283,1.667c0.165-0.119,0.491-2.775,0.778-2.677c0.058,0.021-0.177,1.104-0.236,1.239
	c-0.241,0.555,0.076,1.237-0.082,1.819c-0.018,0.057-0.099,0.355-0.1,0.414c-0.268,0.204,0.07,0.511,0.068,0.741
	c0,0.133,0.687,0.734,0.815,0.811c0.291,0.172,0.349-0.134,0.606-0.076c0.237,0.048,0.305,0.477,0.429,0.657
	c0.173,0.251,0.81,0.225,0.92,0.344c0.072,0.09,0.011,0.581,0.303,0.648c-0.002-0.032-0.005-0.21,0.033-0.232
	c0.092-0.055,0.277,0.269,0.214,0.329c-0.094,0.021-0.175-0.009-0.246-0.097c0,0.042-0.048,0.682,0.138,0.557
	c0.006-0.038,0.014-0.081,0.022-0.119c0.24,0.107,0.222,0.463,0.399,0.514c0.238,0.065,0.418,0.369,0.596,0.451
	c0.158,0.082,0.117-0.563,0.423-0.594c0.247-0.022,0.384,0.624,0.468,0.775c0.128,0.226-0.174,0.771-0.007,0.945
	c0.173,0.178-0.424,0.608-0.449,0.789c-0.022,0.138-0.319,0.268-0.309,0.319c0.021,0.154-0.066,0.354-0.12,0.5
	c-0.155,0.4-0.079,0.433,0.181,0.621c0.01,0.008-0.481,0.978-0.202,1.225c0.448,0.368,1.031,1.267,1.172,1.832
	c0.292,0.781,0.733,1.258,1.475,1.643c0.606,0.315,1.032,0.858,1.032,1.582c0.02,0.428-0.041,0.959,0.138,1.367
	c0.128,0.274-0.109,0.735,0.069,0.988c0.116,0.155-0.035,0.246,0.034,0.395c0.069,0.158,0.237,0.418,0.233,0.604
	c-0.005,0.307-0.002,0.669,0.019,0.973c0.003,0.102-0.09,0.276-0.04,0.342c0.075,0.09,0.479,1.099,0.479,1.396
	c0,0.073,0.318-0.017,0.035-0.308c0.336-0.188,0.269,0.611,0.293,0.617c-0.309-0.104-0.108-0.021-0.087,0.373
	c0.014,0.233-0.06,0.121,0.13,0.166c0.301,0.067,0,0.268,0.114,0.433c0.23,0.323,0.574,0.628,0.812,0.879
	C33.902,44.241,34.564,44.176,35.028,44.271C35.09,44.283,34.94,44.256,35.028,44.271 M36.297,12.459
	c-0.106,0.095-0.223,0.115-0.345,0.149C36.038,12.48,36.167,12.5,36.297,12.459 M35.281,12.372c0.08-0.012,0.141,0.011,0.184,0.067
	c0.003,0.029-0.419,0.049-0.481,0.159C35.039,12.414,35.191,12.444,35.281,12.372C35.325,12.425,35.191,12.444,35.281,12.372
	 M34.258,13.094C34.349,13.118,34.13,13.075,34.258,13.094C34.263,13.097,34.235,13.092,34.258,13.094 M33.695,12.024
	c0.04-0.042,0.069-0.035,0.092,0.022C33.746,12.091,33.718,12.084,33.695,12.024C33.699,12,33.693,12.052,33.695,12.024
	 M33.139,13.693C32.985,13.683,33.307,13.697,33.139,13.693C33.12,13.691,33.166,13.694,33.139,13.693 M33.307,13.045
	c-0.545,0.509-0.121,0.008-0.277,0.164c0.002,0.01,0,0.015-0.012,0.017C32.977,13.18,33.296,13.047,33.307,13.045
	C33.239,13.111,33.21,13.064,33.307,13.045 M33.106,12.447c-0.099,0.112-0.099,0.112-0.236,0.083
	C32.943,12.485,33.039,12.503,33.106,12.447 M35.529,10.529c-0.032,0.001-0.066,0.001-0.124,0.001
	C35.583,10.385,35.548,10.529,35.529,10.529C35.498,10.53,35.555,10.529,35.529,10.529 M35.923,10.267
	c-0.062,0.068-0.146,0.03-0.218,0.063C35.78,10.175,35.797,10.174,35.923,10.267 M33.727,10.446
	c0.044-0.041,0.096-0.061,0.156-0.058C33.937,10.466,33.554,10.509,33.727,10.446C33.746,10.407,33.703,10.455,33.727,10.446
	 M33.624,10.335c0.063,0.027,0.059,0.055-0.014,0.088C33.554,10.39,33.562,10.362,33.624,10.335
	C33.649,10.335,33.598,10.34,33.624,10.335 M30.78,15.191c0.003-0.001-0.854,0.342-0.789,0.13c-0.019,0.066,0.296-0.243,0.23-0.213
	c0.068-0.03,0.644-0.065,0.81-0.063C30.945,15.132,30.864,15.163,30.78,15.191C30.588,15.264,30.864,15.163,30.78,15.191
	 M31.463,14.768c0.708,0.068-0.419,0.283-0.542,0.157C31.084,14.788,31.271,14.747,31.463,14.768
	C31.521,14.775,31.271,14.747,31.463,14.768 M31.346,10.374c0.188-0.12,0.395-0.211,0.643-0.267
	c-0.181,0.149-0.424,0.212-0.647,0.273L31.346,10.374z M31.387,14.193c-0.035,0.032-0.06,0.031-0.091,0
	C31.339,14.176,31.381,14.163,31.387,14.193C31.399,14.224,31.381,14.163,31.387,14.193 M31.176,14.616
	C31.161,14.616,31.111,14.603,31.176,14.616C31.184,14.616,31.156,14.611,31.176,14.616 M30.971,14.254
	c0.256,0.121,0.11,0.519-0.114,0.209c-0.006,0.184-0.328,0.497-0.503,0.535c0.066-0.074,0.093-0.152,0.068-0.24
	c-0.054-0.045-0.157,0.077-0.218,0.077c0.025,0.11,0.46-0.749,0.093-0.5c-0.135,0.101-1.016,1.041-1.067,0.989
	c-0.083-0.085,0.389-0.774,0.425-0.803C29.958,14.275,30.588,14.077,30.971,14.254 M30.479,10.973
	c0.041-0.023,0.319-0.193,0.356-0.154c0.09,0.112-0.454,0.253-0.482,0.254C30.388,11.006,30.435,10.997,30.479,10.973
	C30.582,10.916,30.435,10.997,30.479,10.973 M30.538,13.277c0,0.013-0.111,0.228-0.184,0.142
	C30.3,13.362,30.521,13.18,30.538,13.277C30.529,13.331,30.533,13.25,30.538,13.277 M29.917,11.497c0.036,0,0.492-0.286,0.505-0.167
	C30.43,11.363,29.865,11.506,29.917,11.497 M29.794,11.969c-0.031,0.053-0.058,0.081-0.122,0.081
	C29.696,11.993,29.736,11.988,29.794,11.969 M29.476,13.075c0.063-0.05,0.21-0.288,0.137-0.382c0.042,0.049-0.273-0.035-0.13-0.09
	c0.058-0.02,0.42-0.215,0.475-0.154c0.101,0.105-0.448,0.683-0.555,0.734C29.412,13.123,29.442,13.098,29.476,13.075
	C29.562,13.005,29.442,13.098,29.476,13.075 M29.787,13.803c0.394-0.125,0.539-0.35,0.778-0.047
	c0.088,0.112,0.073,0.402-0.142,0.334c0.061,0.021-0.637-0.047-0.51-0.125c-0.139,0.089-0.414,0.149-0.574,0.078
	C29.486,13.957,29.622,13.858,29.787,13.803C29.884,13.772,29.622,13.858,29.787,13.803 M29.236,13.07
	c0.038,0.093,0.008,0.14-0.098,0.156C29.178,13.163,29.209,13.115,29.236,13.07 M23.634,21.587
	C23.453,21.583,23.772,21.583,23.634,21.587C23.614,21.587,23.65,21.587,23.634,21.587 M25.896,23.211
	C25.845,23.23,26.035,23.181,25.896,23.211C25.889,23.216,25.918,23.207,25.896,23.211 M31.413,25.035
	C31.318,25.022,31.523,25.045,31.413,25.035C31.403,25.035,31.429,25.036,31.413,25.035 M32.317,41.209
	C32.162,41.186,32.396,41.084,32.317,41.209C32.276,41.204,32.321,41.204,32.317,41.209 M32.716,33.119
	C32.664,33.061,32.75,33.155,32.716,33.119C32.71,33.112,32.731,33.127,32.716,33.119 M32.778,38.162
	C32.686,38.195,32.888,38.119,32.778,38.162C32.755,38.169,32.796,38.154,32.778,38.162 M33.311,43.592
	c-0.068-0.041-0.068-0.066-0.001-0.076C33.386,43.543,33.387,43.574,33.311,43.592C33.284,43.59,33.338,43.598,33.311,43.592
	 M34.018,43.9c-0.073-0.015-0.066-0.047,0.021-0.084C34.1,43.841,34.092,43.871,34.018,43.9C33.985,43.9,34.039,43.895,34.018,43.9
	 M32.523,41.895c-0.007,0.004-0.015,0.008-0.023,0.01C32.522,41.883,32.529,41.881,32.523,41.895 M34.275,9.41h-0.004
	c0.001-0.001,0.001-0.002,0.004-0.002V9.41z M27.644,12.553l-0.004,0.001L27.644,12.553z M27.826,12.397L27.826,12.397
	L27.826,12.397z M58.792,24.46h0.002c-0.384-1.405-0.665-2.797-1.249-4.162c-0.689-1.616-1.602-3.143-2.699-4.515
	c-1.035-1.299-2.236-2.463-3.563-3.455c-0.65-0.486-1.323-0.926-2.022-1.326c-0.339-0.192-0.68-0.375-1.027-0.55
	c-0.148-0.071-0.683-0.21-0.762-0.341c0.006,0.061,0.313,0.216,0.348,0.257c-0.205-0.055-0.75-0.287-0.756-0.322
	c0.008-0.025,0.056,0,0.053-0.042c-0.311-0.197-1.465-0.621-1.694-0.308c0.05-0.059,0.793,0.8,0.817,0.953
	c0.046,0.336,0.572,0.691,0.9,0.801c0.471,0.153,0.119-0.052,0.315-0.164c0.129-0.062,0.241,0.213,0.36,0.15
	c0-0.002,0-0.006,0.004-0.006c-0.031-0.065-0.071-0.13-0.104-0.194c-0.037,0,0.841,0.905,0.951,0.709
	c-0.103-0.244-0.261-0.526-0.508-0.754c-0.224-0.206-0.565-0.223-0.806-0.432c-0.119-0.104-0.563-0.43-0.612-0.582
	c0.586,0.02,1.263,1.265,1.856,0.785c-0.082-0.055-0.166-0.118-0.242-0.182c0.111,0.031,0.604,0.188,0.435,0.397
	c-0.465-0.082,0.403,0.395,0.419,0.445c-0.091-0.004-0.15-0.073-0.229-0.08c0.037,0.164,0.496,0.331,0.531,0.611
	c-0.283,0.045-0.16-0.168-0.341,0.058c-0.06,0.072-0.313,0.05-0.446,0.061c-0.318,0.027-0.681-0.523-0.92-0.688
	c0.104,0.305,0.271,0.449,0.61,0.664c0.171,0.094-0.233,0.137-0.228,0.272c0.016,0,0.107,0.051,0.106,0.077
	c0,0.015-0.089-0.063-0.106-0.077c0.035-0.018-0.058,0.54-0.064,0.532c0.271,0.308-0.35,0.217-0.366,0.227
	c0.048,0.069,0.149,0.106,0.17,0.209c-0.182,0.011-0.323-0.017-0.502,0.048c0.253,0.077,1.654,0.72,1.349,1.207
	c-0.102,0.161-1.045-0.039-1.224-0.046c-0.364-0.024-0.022,0.348-0.013,0.395c0.057,0.279,0.271,0.401,0.257,0.726
	c-0.015,0.229,0.214,0.238,0.292,0.431c0.063,0.171,0.021,0.185,0.202,0.21c0.312,0.038,0.317-0.008,0.578,0.197
	c0.187,0.144,0.262-0.137,0.481-0.146c0.557-0.025,0.084-0.137,0.353-0.21c0.325-0.092-0.095-0.608-0.073-0.707
	c0.023-0.137-0.021-0.288,0.159-0.34c0.282-0.073-0.076-0.367-0.093-0.445c-0.056-0.23,0.771,0.198,0.676-0.386
	c0.475,0.147,0.963,0.583,1.41,0.831c0.26,0.154,0.517,0.304,0.707,0.55c0.227,0.292-0.323,0.173-0.359,0.258
	c-0.031,0.092,0.484,0.329,0.566,0.324c0.017-0.053-0.061-0.353-0.067-0.405c-0.022-0.206-0.324-0.412-0.308-0.577
	c0.102,0.009,0.185,0.046,0.26,0.106c-0.278-0.345-0.729-0.379-1.047-0.632c-0.2-0.156-0.438-0.284-0.627-0.446
	c-0.002-0.003-0.336-0.433-0.101-0.35c0.373,0.129,0.775,0.507,1.157,0.706c0.299,0.157,0.379,0.254,0.598,0.513
	c0.09,0.102,0.555,0.641,0.657,0.659c-0.002-0.003,0.378,0.338,0.533,0.389c-0.071-0.154-0.131-0.354-0.21-0.475
	c-0.104-0.17-0.538-0.268-0.538-0.521c0.101,0.008,0.112-0.095,0.323-0.086c-0.113-0.003,0.138-0.164,0.121-0.141
	c-0.404-0.232-0.953-0.907-1.098-1.364c0.112,0.007,0.172,0.156,0.293,0.078c-0.039-0.078-0.05-0.159-0.039-0.244
	c0.03,0.034,0.414,0.366,0.336,0.429c-0.103-0.002-0.199-0.047-0.271-0.131c0.053,0.192,0.245,0.196,0.32,0.329
	c0.008-0.052-0.022-0.098,0.016-0.156c0.341,0.141,1.02,0.669,1.109,1.043c-0.146,0.016-0.43-0.294-0.522-0.22
	c-0.032,0.079-0.028,0.151,0.015,0.227c-0.045,0-0.082,0.009-0.125,0.032c0.056,0.042,0.086,0.099,0.096,0.166
	c-0.053,0.016-0.11,0.035-0.168,0.047c0.049,0.188,1.039,1.131,1.106,1.037c0.019-0.031-0.043-0.127-0.021-0.143
	c0.048-0.059,0.208,0.211,0.284,0.158c0.063-0.04-0.064-0.127,0.008-0.164c0.154-0.076,0.746,1.085,0.818,1.222
	c0.283,0.538,0.096,0.211-0.119,0.284c-0.039,0.057-0.058,0.114-0.062,0.18c-0.349-0.082-0.726-0.279-1.011-0.482
	c-0.445-0.321,0.148,0.88-0.113,0.729c-0.152-0.086-0.238-0.215-0.432-0.232c-0.271-0.024-0.344-0.317-0.594-0.4
	c-0.207-0.071-1.016-0.144-0.91-0.513c0.084-0.317-0.318-0.579-0.455-0.699c-0.071-0.063-0.965,0.054-1.107,0.097
	c-0.249,0.081-0.643,0.158-0.779,0.39c-0.238,0.43-0.785-0.136-1.002-0.048c-0.117,0.046-0.002,0.399-0.063,0.512
	c-0.091,0.167-0.308,0.181-0.361,0.378c-0.099,0.367,0.181,0.669,0.054,1.007c-0.102,0.265-0.621,0.379-0.625,0.604
	c-0.004,0.117-0.025,0.248-0.137,0.309c-0.234,0.136,0.01,0.444-0.142,0.599c-0.794,0.805,0.255,1.6,0.073,2.486
	c-0.097,0.503-0.156,0.605,0.056,1.035c0.051,0.112,0.014,0.891,0.413,0.577c0.047,0.455,0.631,0.547,0.734,0.98
	c0.125,0.514,0.629,0.74,1.019,1.046c0.159,0.123,0.29,0.282,0.476,0.375c0.315,0.161,0.536-0.09,0.848-0.176
	c0.271-0.08,0.563-0.053,0.822,0.069c0.156,0.074,1.271-0.719,1.575-0.568c0.222,0.109,0.237,0.38,0.334,0.574
	c0.144,0.274,0.456-0.084,0.663,0.007c0.365,0.165,0.479,1.508,0.165,1.755c-0.229,0.169,0.297,0.903,0.371,1.053
	c0.211,0.414,0.401,1.14,0.335,1.601c-0.053,0.371,0.05,0.96-0.166,1.291c-0.209,0.327-0.334,0.678-0.507,1.05
	c-0.44,0.954-0.015,2.04-0.396,3.035c-0.229,0.505-0.188,1.05-0.313,1.583c-0.083,0.341-0.497,0.835-0.34,1.192
	c0.25-0.221,0.621-0.192,0.91-0.332c0.569-0.287,0.851-0.956,1.267-1.398c0.226-0.234,0.364-0.533,0.494-0.82
	c0.13-0.276,0.386-0.455,0.506-0.723c0.29-0.682,0.563-1.361,0.854-2.042c0.619-1.473,0.719-2.885,0.938-4.46
	C59.098,27.709,59.105,26.123,58.792,24.46 M57.316,20.582c-0.077-0.198-1.115-1.722-0.994-1.806
	c0.139-0.089,2.363,3.849,2.123,4.457C58.102,22.335,57.701,21.462,57.316,20.582C57.316,20.574,57.398,20.764,57.316,20.582
	 M58.273,27.545c-0.043-0.11,0.014-0.203,0.047-0.332C58.361,27.348,58.291,27.44,58.273,27.545 M58.156,28.163
	c-0.002-0.067-0.008-0.119,0.039-0.17C58.225,28.059,58.197,28.105,58.156,28.163 M57.785,33.214
	c-0.041,0.015-0.075,0.027-0.12,0.041c-0.069,0,0.134-0.097,0.144-0.1C57.797,33.184,57.797,33.197,57.785,33.214
	C57.759,33.255,57.797,33.197,57.785,33.214 M57.846,31.162c-0.004-0.184,0.006-0.197,0.19-0.314
	C57.997,30.98,57.861,31.041,57.846,31.162 M58.052,30.207c-0.002-0.343-0.016-0.745,0.063-1.076c0.016,0.58,0.043,1.167,0.028,1.75
	C58.046,30.76,58.052,30.352,58.052,30.207C58.052,30.083,58.052,30.325,58.052,30.207 M58.355,31.296
	c-0.004,0.315-0.045,1.165-0.256,1.409c0.024-0.525,0.221-1.007,0.228-1.531C58.375,31.224,58.357,31.263,58.355,31.296
	C58.355,31.335,58.357,31.263,58.355,31.296 M58.602,28.11c-0.086,0.373-0.004,0.489-0.224,0.696
	c-0.002-0.275-0.103-0.81,0.183-0.971C58.596,27.925,58.635,27.997,58.602,28.11C58.566,28.264,58.635,27.997,58.602,28.11
	 M46.354,46.236c0.025,0.057-2.453,0.755-2.707,0.81c-1.035,0.218-2.08,0.354-3.137,0.407c-2.01,0.096-4.106-0.087-6.033-0.672
	c0.249,0.025,0.551,0.152,0.8,0.117c-0.241-0.152-0.538-0.101-0.75-0.287c0.803,0.132,1.569,0.068,2.308,0.166
	c-0.075-0.104-0.75-0.27-0.745-0.338c0.096-0.006,0.614-0.021,0.632-0.037c0.242-0.187-0.388-0.166-0.33-0.299
	c0.017-0.039,0.189,0.019,0.252-0.059c0.097-0.13,0-0.193,0.038-0.259c0.024-0.058,1-0.228,1.102-0.181
	c-0.114,0.067-0.246-0.014-0.203,0.177c-0.092-0.017-0.396-0.007-0.411,0.129c0.005-0.035,0.329,0.413,0.337,0.437
	c0.112,0.176,0.502,0.279,0.54,0.492c0.061,0.352,1.911,0.319,2.183,0.285c0.692-0.075,1.34-0.324,2.02-0.441
	c0.406-0.07,0.807-0.188,1.221-0.226c0.191-0.022,0.819-0.237,0.969-0.188C44.532,46.602,46.011,46.172,46.354,46.236
	C46.357,46.244,46.298,46.229,46.354,46.236 M57.596,35.462c0.076-0.196,0.141-0.406,0.239-0.6
	C57.773,35.073,57.684,35.267,57.596,35.462 M57.915,34.654c0.008-0.022,0.019-0.05,0.032-0.071
	C57.95,34.609,57.926,34.633,57.915,34.654 M36.57,9.104c-0.105-0.018-0.218-0.007-0.325-0.022C36.3,9.03,36.63,9.02,36.488,8.93
	c0.449-0.277,1.389-0.334,1.905-0.271c0.585,0.071,1.16-0.108,1.736-0.018c0.232,0.039,0.434,0.043,0.664,0.058
	c0.203,0.024-0.025,0.232,0.203,0.264c0.136,0.017,0.4,0.323,0.523,0.257c-0.006,0.214-0.098,0.063-0.029,0.265
	c0.013,0.043,0.255,0.18,0.242,0.196c-0.023,0.032-0.67-0.015-0.645-0.007c-0.05-0.008,0.012,0.102,0.055,0.083
	c0.127,0.036,0.412-0.01,0.551,0.001c-0.322,0.297-0.813,0.262-1.178,0.5c-0.226,0.146-0.558,0.131-0.801,0.221
	c0,0.25-0.19,0.555-0.355,0.81c-0.118,0.179-0.94-0.23-1.026-0.338c-0.178-0.215-0.591-0.783-0.147-0.959
	c0.542-0.215,0.003-0.038-0.154-0.155c0.131-0.182,0.271-0.121,0.478-0.09c-0.102-0.145-0.232-0.182-0.393-0.105
	c-0.054-0.156,0.224-0.296-0.016-0.462c-0.109-0.071-0.676,0.012-0.696-0.088c-0.033-0.249,0.699-0.117,0.826-0.322
	C37.686,8.653,37.101,9.187,36.57,9.104C36.465,9.086,36.668,9.119,36.57,9.104 M46.846,12.824c0.086-0.009-0.107-0.289-0.162-0.344
	c0.061,0.005,0.116,0.011,0.172-0.026c-0.045-0.126-0.612-0.457-0.654-0.432c-0.215,0.134-0.485-0.465-0.51-0.549
	c0.367-0.05,0.597,0.343,0.93,0.506c0.279,0.135,1.299,0.624,1.332,0.929c0.021,0.155-0.775,0.09-0.891,0.272
	c-0.09-0.227,0.194-0.223,0.188-0.295C47.24,12.833,46.886,12.821,46.846,12.824C46.82,12.827,46.969,12.808,46.846,12.824
	 M36.446,13.111c-0.054,0.041-0.746,0.695-0.729,0.757c0.015,0.06,0.72,0.016,0.84,0.086c-0.006,0.078-0.104,0.038-0.12,0.107
	c0.088,0,0.375-0.177,0.422-0.124c0.005,0.045-0.001,0.088-0.025,0.13c0.309,0.306,0.281-0.36,0.295-0.395
	c-0.213-0.031,0.051-0.34-0.317-0.206c0.022-0.011-0.402-0.127-0.375-0.101c-0.039-0.036,0.299-0.324,0.323-0.362
	C36.565,12.955,36.535,13.042,36.446,13.111C36.327,13.197,36.469,13.093,36.446,13.111 M37.127,13.836
	C37.153,13.862,37.078,13.862,37.127,13.836C37.129,13.841,37.121,13.84,37.127,13.836 M36.97,13.818
	c0.021-0.021,0.138-0.072,0.063-0.005C37.009,13.86,36.907,13.891,36.97,13.818C36.979,13.809,36.956,13.836,36.97,13.818
	 M36.479,13.021l0.01-0.001c0,0,0,0.003,0.001,0.008C36.489,13.023,36.489,13.023,36.479,13.021 M35.858,13.649
	c0.022,0,0.035,0,0.047,0.012C35.89,13.662,35.814,13.658,35.858,13.649C35.881,13.649,35.847,13.651,35.858,13.649 M29.089,21.793
	c-0.194,0.018,0.121-0.152,0.095-0.213c-0.128-0.297-1.012-0.365-1.096-0.599c0.04-0.015,0.065-0.043,0.081-0.082
	c-0.306-0.123-0.463,0.249-0.736,0.224c0.57-0.963,1.98,0.14,2.547,0.585C29.682,21.746,29.386,21.749,29.089,21.793
	C29.061,21.793,29.25,21.766,29.089,21.793 M29.826,22.304c-0.147-0.061,0.464-0.056,0.547-0.092
	c-0.121-0.185-0.014-0.287-0.246-0.354c0.216-0.264,0.924,0.043,1.149,0.142c-0.016,0.033-0.063,0.002-0.083,0.042
	c0.016,0.017,0.487,0.402,0.171,0.274c-0.346-0.148-0.535,0.057-0.779,0.193C30.394,22.234,30.079,22.425,29.826,22.304
	C29.796,22.292,29.88,22.33,29.826,22.304 M46.352,12.43c0.33,0.344-0.187,0.608-0.416,0.389c-0.117-0.118-0.047-0.395-0.308-0.477
	c0.067-0.02,0.138-0.042,0.204-0.068C45.65,11.849,46.262,12.341,46.352,12.43C46.424,12.509,46.323,12.403,46.352,12.43
	 M42.025,10.344c-0.02-0.069,0.479-0.038,0.558-0.054c0.138-0.023,1.13,0.078,0.778,0.238c-0.27,0.12-0.668,0.259-0.92,0.021
	C42.378,10.497,42.032,10.357,42.025,10.344C42.014,10.298,42.05,10.413,42.025,10.344 M51.063,15.249
	c0.117,0,0.399,0.445,0.354,0.518c-0.135,0.208-0.355-0.323-0.492-0.405C50.971,15.328,51.016,15.292,51.063,15.249 M35.621,9.241
	c0.336-0.256,0.413-0.112,0.833-0.069C36.323,9.293,35.999,9.319,35.621,9.241C35.714,9.169,35.999,9.319,35.621,9.241
	 M43.068,8.948c-0.252-0.068-0.51-0.078-0.752-0.174c0.289-0.032,0.64,0.076,0.845,0.135C43.227,8.931,43.053,8.942,43.068,8.948
	C42.816,8.879,43.093,8.953,43.068,8.948 M42.316,8.774c-0.022,0.004-0.053,0.006-0.08,0.008
	C42.264,8.757,42.294,8.753,42.316,8.774C42.294,8.778,42.307,8.768,42.316,8.774 M29.166,22.318
	c0.053,0.006,0.081,0.034,0.09,0.085c-0.031,0.14-0.47-0.058-0.516-0.119C28.891,22.197,29.033,22.249,29.166,22.318 M32.308,22.309
	C32.075,22.876,31.491,21.913,32.308,22.309C32.271,22.39,32.17,22.243,32.308,22.309 M33.212,25.07L33.212,25.07
	c0.009-0.016,0.025-0.024,0.042-0.025C33.243,25.054,33.233,25.059,33.212,25.07 M33.296,25.054
	c-0.012-0.005,0.063-0.233,0.207-0.244C33.68,24.919,33.38,25.064,33.296,25.054C33.28,25.048,33.487,25.077,33.296,25.054
	 M35.144,9.119c-0.16,0.104-0.348,0.034-0.505,0.096C34.86,9.058,34.966,9.07,35.144,9.119C34.984,9.222,35.113,9.109,35.144,9.119
	 M29.278,20.562c-0.062-0.232-0.153-0.237,0.006-0.44C29.343,20.34,29.343,20.47,29.278,20.562
	C29.25,20.467,29.343,20.47,29.278,20.562 M25.044,28.633c-0.003,0.086-0.045,0.119-0.123,0.087
	c-0.029-0.023-0.045-0.305,0.007-0.364C24.967,28.445,25.007,28.538,25.044,28.633C25.058,28.67,25.007,28.538,25.044,28.633
	 M34.829,13.367c0.183-0.004,0.326,0.05,0.489,0.171C35.101,13.577,34.966,13.497,34.829,13.367 M50.991,15.17h0.002
	c-0.054-0.014-0.369-0.208-0.241-0.312C50.843,14.792,50.98,15.137,50.991,15.17 M54.268,16.8c-0.06-0.063-0.19-0.024-0.227-0.149
	c0.111,0.058,0.234,0.029,0.343,0.114C54.341,16.795,54.302,16.833,54.268,16.8C54.208,16.736,54.302,16.833,54.268,16.8
	 M35.415,9.226C35.386,9.18,35.33,9.21,35.296,9.169c0.091-0.102,0.217-0.065,0.327-0.096C35.614,9.086,35.484,9.325,35.415,9.226
	C35.386,9.18,35.437,9.253,35.415,9.226 M34.868,9.345c-0.142,0.112-0.288,0.218-0.494,0.201
	C34.511,9.403,34.694,9.383,34.868,9.345 M34.819,14.179c0.038,0.006,0.083-0.003,0.147-0.007c-0.194,0.231-0.417-0.095-0.372-0.109
	C34.558,14.072,34.805,14.176,34.819,14.179C34.857,14.185,34.743,14.168,34.819,14.179 M34.902,9.44
	c0.132-0.107,0.29-0.128,0.454-0.115C35.217,9.408,35.067,9.457,34.902,9.44 M50.175,15.717c-0.155-0.021,0.285-0.16,0.128,0.041
	C50.258,15.755,50.211,15.743,50.175,15.717C50.146,15.715,50.219,15.721,50.175,15.717 M55.052,16.833
	c-0.1-0.047-0.134-0.11-0.104-0.217C55.021,16.674,55.059,16.735,55.052,16.833 M35.234,10.147c0.057-0.099,0.114-0.125,0.307-0.12
	C35.449,10.134,35.345,10.153,35.234,10.147 M33.823,10.803c-0.105,0.061-0.195,0.105-0.313,0.099
	C33.598,10.803,33.693,10.804,33.823,10.803 M45.541,11.607c-0.021,0.044-0.004,0.072,0.029,0.102
	c-0.037-0.014-0.172-0.184-0.063-0.211C45.555,11.52,45.566,11.557,45.541,11.607C45.52,11.651,45.559,11.585,45.541,11.607
	 M27.886,21.167c-0.004,0.069-0.035,0.101-0.101,0.099C27.755,21.209,27.859,21.047,27.886,21.167
	C27.897,21.205,27.881,21.144,27.886,21.167 M34.46,41.438c0.051,0.02,0.079,0.059,0.085,0.112
	C34.545,41.725,34.236,41.456,34.46,41.438C34.491,41.434,34.409,41.439,34.46,41.438 M34.018,10.905
	c-0.038,0.055-0.089,0.081-0.17,0.11C33.886,10.925,33.946,10.908,34.018,10.905 M25.186,28.603
	C25.172,28.797,25.13,28.415,25.186,28.603C25.184,28.626,25.18,28.582,25.186,28.603 M35.321,11.229
	c0.005-0.004,0.016,0.003,0.023,0.004C35.322,11.25,35.277,11.25,35.321,11.229 M34.448,9.368c-0.023,0.003-0.045,0.006-0.069,0.009
	C34.402,9.362,34.422,9.36,34.448,9.368 M34.368,9.38c-0.011,0,0.006-0.004,0.011-0.004C34.374,9.377,34.368,9.377,34.368,9.38
	 M34.275,9.407V9.41C34.272,9.407,34.275,9.407,34.275,9.407 M34.275,9.407c0.021-0.031,0.059-0.024,0.088-0.027
	C34.344,9.417,34.311,9.42,34.275,9.407 M34.899,9.44h0.002C34.901,9.441,34.899,9.442,34.899,9.44 M34.899,9.441
	c-0.008,0.038-0.038,0.029-0.062,0.029C34.847,9.441,34.867,9.438,34.899,9.441 M27.715,29.437
	C27.675,29.405,27.745,29.462,27.715,29.437C27.698,29.423,27.74,29.455,27.715,29.437 M48.591,10.973
	C48.711,11.006,48.6,11,48.591,10.973C48.591,10.973,48.596,10.993,48.591,10.973 M45.575,11.713
	c-0.003-0.001-0.003-0.005-0.003-0.005c0.009,0.004,0.013,0.012,0.009,0.027C45.581,11.728,45.576,11.721,45.575,11.713
	C45.572,11.712,45.576,11.721,45.575,11.713 M34.834,9.47h0.003c0,0.005,0,0.005-0.003,0.003V9.47z M34.795,9.482
	c0.01-0.003,0.023-0.003,0.039-0.009C34.815,9.498,34.801,9.499,34.795,9.482C34.805,9.479,34.796,9.483,34.795,9.482
	 M52.577,15.513L52.577,15.513l0.002,0.001L52.577,15.513z M37.085,28.099C37.025,28.048,37.128,28.059,37.085,28.099
	C37.078,28.095,37.101,28.085,37.085,28.099 M46.364,46.232c-0.003,0.004-0.007,0.004-0.013,0.004
	c0.002-0.01,0.006-0.014,0.014-0.01L46.364,46.232z M46.354,46.236C46.354,46.236,46.352,46.236,46.354,46.236 M30.76,14.278
	c0.011-0.002,0.192-0.021,0.128,0.049C30.817,14.364,30.775,14.349,30.76,14.278C30.78,14.276,30.764,14.319,30.76,14.278
	 M29.618,12.693c-0.05-0.035-0.034-0.071,0.037-0.109C29.716,12.606,29.706,12.644,29.618,12.693
	C29.598,12.69,29.662,12.681,29.618,12.693"/>
<g>
	<g>
		<g>
			<defs>
				<rect id="SVGID_1_" x="20.161" y="29.707" width="38.868" height="17.768"/>
			</defs>
			<clipPath id="SVGID_2_">
				<use xlink:href="#SVGID_1_"  overflow="visible"/>
			</clipPath>
			<path clip-path="url(#SVGID_2_)" fill="#CDD3DA" d="M20.161,29.707c0.883,9.956,9.245,17.768,19.432,17.768
				c10.188,0,18.554-7.812,19.437-17.768H20.161z"/>
		</g>
	</g>
</g>
<rect x="15" y="31.884" fill="#FFD162" width="24.595" height="29.472"/>
<polygon fill="#E7EAED" points="32.619,41.678 8.025,41.678 15.001,31.885 39.596,31.885 "/>
<rect x="39.596" y="31.884" fill="#F6B64D" width="24.591" height="29.472"/>
<g>
	<g>
		<g>
			<defs>
				<rect id="SVGID_3_" x="39.596" y="31.884" width="24.591" height="29.472"/>
			</defs>
			<clipPath id="SVGID_4_">
				<use xlink:href="#SVGID_3_"  overflow="visible"/>
			</clipPath>
			<polygon clip-path="url(#SVGID_4_)" fill="#E49C3E" points="64.188,31.884 39.596,31.884 39.596,31.893 50.089,61.355 
				64.188,61.355 			"/>
		</g>
	</g>
</g>
<polygon fill="#CDD3DA" points="46.57,41.678 71.165,41.678 64.186,31.885 39.596,31.885 "/>
</svg>
